%TF.GenerationSoftware,KiCad,Pcbnew,10.0.0-1.fc44*%
%TF.CreationDate,2026-08-26T22:40:02+01:00*%
%TF.ProjectId,snippy,736e6970-7079-42e6-9b69-6361645f7063,rev?*%
%TF.SameCoordinates,Original*%
%TF.FileFunction,Copper,L2,Bot*%
%TF.FilePolarity,Positive*%
%FSLAX46Y46*%
G04 Gerber Fmt 4.6, Leading zero omitted, Abs format (unit mm)*
G04 Created by KiCad (PCBNEW 10.0.0-1.fc44) date 2026-08-26 22:40:02*
%MOMM*%
%LPD*%
G01*
G04 APERTURE LIST*
%TA.AperFunction,ComponentPad*%
%ADD10C,2.000000*%
%TD*%
%TA.AperFunction,ViaPad*%
%ADD11C,0.600000*%
%TD*%
%TA.AperFunction,Conductor*%
%ADD12C,0.200000*%
%TD*%
G04 APERTURE END LIST*
D10*
%TO.P,SW4,1,1_1*%
%TO.N,GND*%
X142750000Y-100500000D03*
X149250000Y-100500000D03*
%TO.P,SW4,2,2_2*%
%TO.N,Net-(U1-P3.2)*%
X142750000Y-105000000D03*
X149250000Y-105000000D03*
%TD*%
%TO.P,SW3,1,1_1*%
%TO.N,GND*%
X149250000Y-112500000D03*
X142750000Y-112500000D03*
%TO.P,SW3,2,2_2*%
%TO.N,Net-(U1-P3.1)*%
X149250000Y-108000000D03*
X142750000Y-108000000D03*
%TD*%
%TO.P,SW2,1,1_1*%
%TO.N,GND*%
X142750000Y-115500000D03*
X149250000Y-115500000D03*
%TO.P,SW2,2,2_2*%
%TO.N,Net-(U1-P3.0)*%
X142750000Y-120000000D03*
X149250000Y-120000000D03*
%TD*%
D11*
%TO.N,GND*%
X147500000Y-131000000D03*
%TO.N,+3V3*%
X148500000Y-133000000D03*
X151200000Y-130578908D03*
%TO.N,Net-(R1-Pad2)*%
X144755000Y-130500000D03*
X147000000Y-133500000D03*
%TO.N,GND*%
X148500000Y-126500000D03*
X150500000Y-132500000D03*
X142500000Y-138000000D03*
%TD*%
%TO.N,+3V3*%
D12*
X150921092Y-130578908D02*
X148500000Y-133000000D01*
X151200000Y-130578908D02*
X150921092Y-130578908D01*
%TO.N,Net-(R1-Pad2)*%
X147000000Y-132745000D02*
X144755000Y-130500000D01*
X147000000Y-133500000D02*
X147000000Y-132745000D01*
%TD*%
%TA.AperFunction,Conductor*%
%TO.N,GND*%
G36*
X141948027Y-99019685D02*
G01*
X141993782Y-99072489D01*
X142003726Y-99141647D01*
X141974701Y-99205203D01*
X141953873Y-99224318D01*
X141880894Y-99277339D01*
X141880894Y-99277340D01*
X142579766Y-99976212D01*
X142537708Y-99987482D01*
X142412292Y-100059890D01*
X142309890Y-100162292D01*
X142237482Y-100287708D01*
X142226212Y-100329765D01*
X141527340Y-99630894D01*
X141467084Y-99713830D01*
X141359897Y-99924197D01*
X141286934Y-100148752D01*
X141250000Y-100381947D01*
X141250000Y-100618052D01*
X141286934Y-100851247D01*
X141359897Y-101075802D01*
X141467087Y-101286174D01*
X141527338Y-101369104D01*
X141527340Y-101369105D01*
X142226212Y-100670233D01*
X142237482Y-100712292D01*
X142309890Y-100837708D01*
X142412292Y-100940110D01*
X142537708Y-101012518D01*
X142579765Y-101023787D01*
X141880893Y-101722658D01*
X141963828Y-101782914D01*
X142174197Y-101890102D01*
X142398752Y-101963065D01*
X142398751Y-101963065D01*
X142631948Y-102000000D01*
X142868052Y-102000000D01*
X143101247Y-101963065D01*
X143325802Y-101890102D01*
X143536163Y-101782918D01*
X143536169Y-101782914D01*
X143619104Y-101722658D01*
X143619105Y-101722658D01*
X142920233Y-101023787D01*
X142962292Y-101012518D01*
X143087708Y-100940110D01*
X143190110Y-100837708D01*
X143262518Y-100712292D01*
X143273787Y-100670234D01*
X143972658Y-101369105D01*
X143972658Y-101369104D01*
X144032914Y-101286169D01*
X144032918Y-101286163D01*
X144140102Y-101075802D01*
X144213065Y-100851247D01*
X144250000Y-100618052D01*
X144250000Y-100381947D01*
X144213065Y-100148752D01*
X144140102Y-99924197D01*
X144032914Y-99713828D01*
X143972658Y-99630894D01*
X143972658Y-99630893D01*
X143273787Y-100329765D01*
X143262518Y-100287708D01*
X143190110Y-100162292D01*
X143087708Y-100059890D01*
X142962292Y-99987482D01*
X142920234Y-99976212D01*
X143619105Y-99277340D01*
X143619104Y-99277339D01*
X143546127Y-99224318D01*
X143503461Y-99168989D01*
X143497482Y-99099375D01*
X143530087Y-99037580D01*
X143590926Y-99003223D01*
X143619012Y-99000000D01*
X148380988Y-99000000D01*
X148448027Y-99019685D01*
X148493782Y-99072489D01*
X148503726Y-99141647D01*
X148474701Y-99205203D01*
X148453873Y-99224318D01*
X148380894Y-99277339D01*
X148380894Y-99277340D01*
X149079766Y-99976212D01*
X149037708Y-99987482D01*
X148912292Y-100059890D01*
X148809890Y-100162292D01*
X148737482Y-100287708D01*
X148726212Y-100329766D01*
X148027340Y-99630894D01*
X147967084Y-99713830D01*
X147859897Y-99924197D01*
X147786934Y-100148752D01*
X147750000Y-100381947D01*
X147750000Y-100618052D01*
X147786934Y-100851247D01*
X147859897Y-101075802D01*
X147967087Y-101286174D01*
X148027338Y-101369104D01*
X148027340Y-101369105D01*
X148726212Y-100670233D01*
X148737482Y-100712292D01*
X148809890Y-100837708D01*
X148912292Y-100940110D01*
X149037708Y-101012518D01*
X149079765Y-101023787D01*
X148380893Y-101722658D01*
X148463828Y-101782914D01*
X148674197Y-101890102D01*
X148898752Y-101963065D01*
X148898751Y-101963065D01*
X149131948Y-102000000D01*
X149368052Y-102000000D01*
X149601247Y-101963065D01*
X149825802Y-101890102D01*
X150036163Y-101782918D01*
X150036169Y-101782914D01*
X150119104Y-101722658D01*
X150119105Y-101722658D01*
X149420233Y-101023787D01*
X149462292Y-101012518D01*
X149587708Y-100940110D01*
X149690110Y-100837708D01*
X149762518Y-100712292D01*
X149773787Y-100670234D01*
X150472658Y-101369105D01*
X150472658Y-101369104D01*
X150532914Y-101286169D01*
X150532918Y-101286163D01*
X150640102Y-101075802D01*
X150713065Y-100851247D01*
X150750000Y-100618052D01*
X150750000Y-100381947D01*
X150713065Y-100148752D01*
X150640102Y-99924197D01*
X150532914Y-99713828D01*
X150472658Y-99630894D01*
X150472658Y-99630893D01*
X149773787Y-100329765D01*
X149762518Y-100287708D01*
X149690110Y-100162292D01*
X149587708Y-100059890D01*
X149462292Y-99987482D01*
X149420234Y-99976212D01*
X150119105Y-99277340D01*
X150119104Y-99277339D01*
X150046127Y-99224318D01*
X150003461Y-99168989D01*
X149997482Y-99099375D01*
X150030087Y-99037580D01*
X150090926Y-99003223D01*
X150119012Y-99000000D01*
X151375500Y-99000000D01*
X151442539Y-99019685D01*
X151488294Y-99072489D01*
X151499500Y-99124000D01*
X151499500Y-129671205D01*
X151479815Y-129738244D01*
X151427011Y-129783999D01*
X151357853Y-129793943D01*
X151351309Y-129792822D01*
X151278845Y-129778408D01*
X151278842Y-129778408D01*
X151121158Y-129778408D01*
X151121155Y-129778408D01*
X150966510Y-129809169D01*
X150966498Y-129809172D01*
X150820827Y-129869510D01*
X150820814Y-129869517D01*
X150689712Y-129957117D01*
X150578208Y-130068622D01*
X150578205Y-130068625D01*
X150575943Y-130072012D01*
X150557346Y-130091868D01*
X150558121Y-130092643D01*
X148485339Y-132165425D01*
X148424016Y-132198910D01*
X148421850Y-132199361D01*
X148266508Y-132230261D01*
X148266498Y-132230264D01*
X148120827Y-132290602D01*
X148120814Y-132290609D01*
X147989711Y-132378210D01*
X147989707Y-132378213D01*
X147878213Y-132489707D01*
X147878210Y-132489711D01*
X147798329Y-132609261D01*
X147744716Y-132654066D01*
X147675391Y-132662773D01*
X147612364Y-132632618D01*
X147575645Y-132573175D01*
X147575452Y-132572464D01*
X147559576Y-132513214D01*
X147559573Y-132513209D01*
X147480524Y-132376290D01*
X147480521Y-132376286D01*
X147480520Y-132376284D01*
X147368716Y-132264480D01*
X147368715Y-132264479D01*
X147364385Y-132260149D01*
X147364374Y-132260139D01*
X145589574Y-130485339D01*
X145556089Y-130424016D01*
X145555638Y-130421849D01*
X145524738Y-130266510D01*
X145524737Y-130266503D01*
X145501413Y-130210194D01*
X145464397Y-130120827D01*
X145464390Y-130120814D01*
X145376789Y-129989711D01*
X145376786Y-129989707D01*
X145265292Y-129878213D01*
X145265288Y-129878210D01*
X145134185Y-129790609D01*
X145134172Y-129790602D01*
X144988501Y-129730264D01*
X144988489Y-129730261D01*
X144833845Y-129699500D01*
X144833842Y-129699500D01*
X144676158Y-129699500D01*
X144676155Y-129699500D01*
X144521510Y-129730261D01*
X144521498Y-129730264D01*
X144375827Y-129790602D01*
X144375814Y-129790609D01*
X144244711Y-129878210D01*
X144244707Y-129878213D01*
X144133213Y-129989707D01*
X144133210Y-129989711D01*
X144045609Y-130120814D01*
X144045602Y-130120827D01*
X143985264Y-130266498D01*
X143985261Y-130266510D01*
X143954500Y-130421153D01*
X143954500Y-130578846D01*
X143985261Y-130733489D01*
X143985264Y-130733501D01*
X144045602Y-130879172D01*
X144045609Y-130879185D01*
X144133210Y-131010288D01*
X144133213Y-131010292D01*
X144244707Y-131121786D01*
X144244711Y-131121789D01*
X144375814Y-131209390D01*
X144375827Y-131209397D01*
X144521498Y-131269735D01*
X144521503Y-131269737D01*
X144586147Y-131282595D01*
X144676849Y-131300638D01*
X144738760Y-131333023D01*
X144740339Y-131334574D01*
X146313167Y-132907402D01*
X146346652Y-132968725D01*
X146341668Y-133038417D01*
X146328589Y-133063972D01*
X146290611Y-133120811D01*
X146290602Y-133120827D01*
X146230264Y-133266498D01*
X146230261Y-133266510D01*
X146199500Y-133421153D01*
X146199500Y-133578846D01*
X146230261Y-133733489D01*
X146230264Y-133733501D01*
X146290602Y-133879172D01*
X146290609Y-133879185D01*
X146378210Y-134010288D01*
X146378213Y-134010292D01*
X146489707Y-134121786D01*
X146489711Y-134121789D01*
X146620814Y-134209390D01*
X146620827Y-134209397D01*
X146766498Y-134269735D01*
X146766503Y-134269737D01*
X146921153Y-134300499D01*
X146921156Y-134300500D01*
X146921158Y-134300500D01*
X147078844Y-134300500D01*
X147078845Y-134300499D01*
X147233497Y-134269737D01*
X147379179Y-134209394D01*
X147510289Y-134121789D01*
X147621789Y-134010289D01*
X147709394Y-133879179D01*
X147769737Y-133733497D01*
X147779508Y-133684373D01*
X147811892Y-133622464D01*
X147872607Y-133587890D01*
X147942377Y-133591629D01*
X147984696Y-133618295D01*
X147985001Y-133617924D01*
X147987957Y-133620350D01*
X147988806Y-133620885D01*
X147989707Y-133621786D01*
X147989711Y-133621789D01*
X148120814Y-133709390D01*
X148120827Y-133709397D01*
X148266498Y-133769735D01*
X148266503Y-133769737D01*
X148421153Y-133800499D01*
X148421156Y-133800500D01*
X148421158Y-133800500D01*
X148578844Y-133800500D01*
X148578845Y-133800499D01*
X148733497Y-133769737D01*
X148879179Y-133709394D01*
X149010289Y-133621789D01*
X149121789Y-133510289D01*
X149209394Y-133379179D01*
X149269737Y-133233497D01*
X149300500Y-133078842D01*
X149300638Y-133078150D01*
X149333023Y-133016239D01*
X149334519Y-133014715D01*
X150948069Y-131401164D01*
X151009390Y-131367681D01*
X151059936Y-131367230D01*
X151121158Y-131379408D01*
X151278843Y-131379408D01*
X151294564Y-131376280D01*
X151351309Y-131364993D01*
X151420899Y-131371220D01*
X151476077Y-131414082D01*
X151499322Y-131479971D01*
X151499500Y-131486610D01*
X151499500Y-146875500D01*
X151479815Y-146942539D01*
X151427011Y-146988294D01*
X151375500Y-146999500D01*
X140624500Y-146999500D01*
X140557461Y-146979815D01*
X140511706Y-146927011D01*
X140500500Y-146875500D01*
X140500500Y-119881902D01*
X141249500Y-119881902D01*
X141249500Y-120118097D01*
X141286446Y-120351368D01*
X141359433Y-120575996D01*
X141466657Y-120786433D01*
X141605483Y-120977510D01*
X141772490Y-121144517D01*
X141963567Y-121283343D01*
X142062991Y-121334002D01*
X142174003Y-121390566D01*
X142174005Y-121390566D01*
X142174008Y-121390568D01*
X142294412Y-121429689D01*
X142398631Y-121463553D01*
X142631903Y-121500500D01*
X142631908Y-121500500D01*
X142868097Y-121500500D01*
X143101368Y-121463553D01*
X143325992Y-121390568D01*
X143536433Y-121283343D01*
X143727510Y-121144517D01*
X143894517Y-120977510D01*
X144033343Y-120786433D01*
X144140568Y-120575992D01*
X144213553Y-120351368D01*
X144250500Y-120118097D01*
X144250500Y-119881902D01*
X147749500Y-119881902D01*
X147749500Y-120118097D01*
X147786446Y-120351368D01*
X147859433Y-120575996D01*
X147966657Y-120786433D01*
X148105483Y-120977510D01*
X148272490Y-121144517D01*
X148463567Y-121283343D01*
X148562991Y-121334002D01*
X148674003Y-121390566D01*
X148674005Y-121390566D01*
X148674008Y-121390568D01*
X148794412Y-121429689D01*
X148898631Y-121463553D01*
X149131903Y-121500500D01*
X149131908Y-121500500D01*
X149368097Y-121500500D01*
X149601368Y-121463553D01*
X149825992Y-121390568D01*
X150036433Y-121283343D01*
X150227510Y-121144517D01*
X150394517Y-120977510D01*
X150533343Y-120786433D01*
X150640568Y-120575992D01*
X150713553Y-120351368D01*
X150750500Y-120118097D01*
X150750500Y-119881902D01*
X150713553Y-119648631D01*
X150640566Y-119424003D01*
X150533342Y-119213566D01*
X150394517Y-119022490D01*
X150227510Y-118855483D01*
X150036433Y-118716657D01*
X149825996Y-118609433D01*
X149601368Y-118536446D01*
X149368097Y-118499500D01*
X149368092Y-118499500D01*
X149131908Y-118499500D01*
X149131903Y-118499500D01*
X148898631Y-118536446D01*
X148674003Y-118609433D01*
X148463566Y-118716657D01*
X148354550Y-118795862D01*
X148272490Y-118855483D01*
X148272488Y-118855485D01*
X148272487Y-118855485D01*
X148105485Y-119022487D01*
X148105485Y-119022488D01*
X148105483Y-119022490D01*
X148045862Y-119104550D01*
X147966657Y-119213566D01*
X147859433Y-119424003D01*
X147786446Y-119648631D01*
X147749500Y-119881902D01*
X144250500Y-119881902D01*
X144213553Y-119648631D01*
X144140566Y-119424003D01*
X144033342Y-119213566D01*
X143894517Y-119022490D01*
X143727510Y-118855483D01*
X143536433Y-118716657D01*
X143325996Y-118609433D01*
X143101368Y-118536446D01*
X142868097Y-118499500D01*
X142868092Y-118499500D01*
X142631908Y-118499500D01*
X142631903Y-118499500D01*
X142398631Y-118536446D01*
X142174003Y-118609433D01*
X141963566Y-118716657D01*
X141854550Y-118795862D01*
X141772490Y-118855483D01*
X141772488Y-118855485D01*
X141772487Y-118855485D01*
X141605485Y-119022487D01*
X141605485Y-119022488D01*
X141605483Y-119022490D01*
X141545862Y-119104550D01*
X141466657Y-119213566D01*
X141359433Y-119424003D01*
X141286446Y-119648631D01*
X141249500Y-119881902D01*
X140500500Y-119881902D01*
X140500500Y-112381947D01*
X141250000Y-112381947D01*
X141250000Y-112618052D01*
X141286934Y-112851247D01*
X141359897Y-113075802D01*
X141467087Y-113286174D01*
X141527338Y-113369104D01*
X141527340Y-113369105D01*
X142226212Y-112670233D01*
X142237482Y-112712292D01*
X142309890Y-112837708D01*
X142412292Y-112940110D01*
X142537708Y-113012518D01*
X142579765Y-113023787D01*
X141880893Y-113722658D01*
X141963828Y-113782914D01*
X142173043Y-113889515D01*
X142223839Y-113937490D01*
X142240634Y-114005311D01*
X142218097Y-114071446D01*
X142173043Y-114110485D01*
X141963830Y-114217084D01*
X141880894Y-114277340D01*
X142579766Y-114976212D01*
X142537708Y-114987482D01*
X142412292Y-115059890D01*
X142309890Y-115162292D01*
X142237482Y-115287708D01*
X142226212Y-115329765D01*
X141527340Y-114630894D01*
X141467084Y-114713830D01*
X141359897Y-114924197D01*
X141286934Y-115148752D01*
X141250000Y-115381947D01*
X141250000Y-115618052D01*
X141286934Y-115851247D01*
X141359897Y-116075802D01*
X141467087Y-116286174D01*
X141527338Y-116369104D01*
X141527340Y-116369105D01*
X142226212Y-115670233D01*
X142237482Y-115712292D01*
X142309890Y-115837708D01*
X142412292Y-115940110D01*
X142537708Y-116012518D01*
X142579765Y-116023787D01*
X141880893Y-116722658D01*
X141963828Y-116782914D01*
X142174197Y-116890102D01*
X142398752Y-116963065D01*
X142398751Y-116963065D01*
X142631948Y-117000000D01*
X142868052Y-117000000D01*
X143101247Y-116963065D01*
X143325802Y-116890102D01*
X143536163Y-116782918D01*
X143536169Y-116782914D01*
X143619104Y-116722658D01*
X143619105Y-116722658D01*
X142920233Y-116023787D01*
X142962292Y-116012518D01*
X143087708Y-115940110D01*
X143190110Y-115837708D01*
X143262518Y-115712292D01*
X143273787Y-115670234D01*
X143972658Y-116369105D01*
X143972658Y-116369104D01*
X144032914Y-116286169D01*
X144032918Y-116286163D01*
X144140102Y-116075802D01*
X144213065Y-115851247D01*
X144250000Y-115618052D01*
X144250000Y-115381947D01*
X144213065Y-115148752D01*
X144140102Y-114924197D01*
X144032914Y-114713828D01*
X143972658Y-114630894D01*
X143972658Y-114630893D01*
X143273787Y-115329765D01*
X143262518Y-115287708D01*
X143190110Y-115162292D01*
X143087708Y-115059890D01*
X142962292Y-114987482D01*
X142920234Y-114976212D01*
X143619105Y-114277340D01*
X143619104Y-114277338D01*
X143536174Y-114217087D01*
X143326956Y-114110485D01*
X143276160Y-114062511D01*
X143259365Y-113994690D01*
X143281902Y-113928555D01*
X143326956Y-113889515D01*
X143536163Y-113782918D01*
X143536169Y-113782914D01*
X143619104Y-113722658D01*
X143619105Y-113722658D01*
X142920233Y-113023787D01*
X142962292Y-113012518D01*
X143087708Y-112940110D01*
X143190110Y-112837708D01*
X143262518Y-112712292D01*
X143273787Y-112670234D01*
X143972658Y-113369105D01*
X143972658Y-113369104D01*
X144032914Y-113286169D01*
X144032918Y-113286163D01*
X144140102Y-113075802D01*
X144213065Y-112851247D01*
X144250000Y-112618052D01*
X144250000Y-112381947D01*
X147750000Y-112381947D01*
X147750000Y-112618052D01*
X147786934Y-112851247D01*
X147859897Y-113075802D01*
X147967087Y-113286174D01*
X148027338Y-113369104D01*
X148027340Y-113369105D01*
X148726212Y-112670233D01*
X148737482Y-112712292D01*
X148809890Y-112837708D01*
X148912292Y-112940110D01*
X149037708Y-113012518D01*
X149079765Y-113023787D01*
X148380893Y-113722658D01*
X148463828Y-113782914D01*
X148673043Y-113889515D01*
X148723839Y-113937490D01*
X148740634Y-114005311D01*
X148718097Y-114071446D01*
X148673043Y-114110485D01*
X148463830Y-114217084D01*
X148380894Y-114277340D01*
X149079766Y-114976212D01*
X149037708Y-114987482D01*
X148912292Y-115059890D01*
X148809890Y-115162292D01*
X148737482Y-115287708D01*
X148726212Y-115329766D01*
X148027340Y-114630894D01*
X147967084Y-114713830D01*
X147859897Y-114924197D01*
X147786934Y-115148752D01*
X147750000Y-115381947D01*
X147750000Y-115618052D01*
X147786934Y-115851247D01*
X147859897Y-116075802D01*
X147967087Y-116286174D01*
X148027338Y-116369104D01*
X148027340Y-116369105D01*
X148726212Y-115670233D01*
X148737482Y-115712292D01*
X148809890Y-115837708D01*
X148912292Y-115940110D01*
X149037708Y-116012518D01*
X149079765Y-116023787D01*
X148380893Y-116722658D01*
X148463828Y-116782914D01*
X148674197Y-116890102D01*
X148898752Y-116963065D01*
X148898751Y-116963065D01*
X149131948Y-117000000D01*
X149368052Y-117000000D01*
X149601247Y-116963065D01*
X149825802Y-116890102D01*
X150036163Y-116782918D01*
X150036169Y-116782914D01*
X150119104Y-116722658D01*
X150119105Y-116722658D01*
X149420233Y-116023787D01*
X149462292Y-116012518D01*
X149587708Y-115940110D01*
X149690110Y-115837708D01*
X149762518Y-115712292D01*
X149773787Y-115670234D01*
X150472658Y-116369105D01*
X150472658Y-116369104D01*
X150532914Y-116286169D01*
X150532918Y-116286163D01*
X150640102Y-116075802D01*
X150713065Y-115851247D01*
X150750000Y-115618052D01*
X150750000Y-115381947D01*
X150713065Y-115148752D01*
X150640102Y-114924197D01*
X150532914Y-114713828D01*
X150472658Y-114630894D01*
X150472658Y-114630893D01*
X149773787Y-115329765D01*
X149762518Y-115287708D01*
X149690110Y-115162292D01*
X149587708Y-115059890D01*
X149462292Y-114987482D01*
X149420234Y-114976212D01*
X150119105Y-114277340D01*
X150119104Y-114277338D01*
X150036174Y-114217087D01*
X149826956Y-114110485D01*
X149776160Y-114062511D01*
X149759365Y-113994690D01*
X149781902Y-113928555D01*
X149826956Y-113889515D01*
X150036163Y-113782918D01*
X150036169Y-113782914D01*
X150119104Y-113722658D01*
X150119105Y-113722658D01*
X149420233Y-113023787D01*
X149462292Y-113012518D01*
X149587708Y-112940110D01*
X149690110Y-112837708D01*
X149762518Y-112712292D01*
X149773787Y-112670234D01*
X150472658Y-113369105D01*
X150472658Y-113369104D01*
X150532914Y-113286169D01*
X150532918Y-113286163D01*
X150640102Y-113075802D01*
X150713065Y-112851247D01*
X150750000Y-112618052D01*
X150750000Y-112381947D01*
X150713065Y-112148752D01*
X150640102Y-111924197D01*
X150532914Y-111713828D01*
X150472658Y-111630894D01*
X150472658Y-111630893D01*
X149773787Y-112329765D01*
X149762518Y-112287708D01*
X149690110Y-112162292D01*
X149587708Y-112059890D01*
X149462292Y-111987482D01*
X149420234Y-111976212D01*
X150119105Y-111277340D01*
X150119104Y-111277338D01*
X150036174Y-111217087D01*
X149825802Y-111109897D01*
X149601247Y-111036934D01*
X149601248Y-111036934D01*
X149368052Y-111000000D01*
X149131948Y-111000000D01*
X148898752Y-111036934D01*
X148674197Y-111109897D01*
X148463830Y-111217084D01*
X148380894Y-111277340D01*
X149079766Y-111976212D01*
X149037708Y-111987482D01*
X148912292Y-112059890D01*
X148809890Y-112162292D01*
X148737482Y-112287708D01*
X148726212Y-112329766D01*
X148027340Y-111630894D01*
X147967084Y-111713830D01*
X147859897Y-111924197D01*
X147786934Y-112148752D01*
X147750000Y-112381947D01*
X144250000Y-112381947D01*
X144213065Y-112148752D01*
X144140102Y-111924197D01*
X144032914Y-111713828D01*
X143972658Y-111630894D01*
X143972658Y-111630893D01*
X143273787Y-112329765D01*
X143262518Y-112287708D01*
X143190110Y-112162292D01*
X143087708Y-112059890D01*
X142962292Y-111987482D01*
X142920234Y-111976212D01*
X143619105Y-111277340D01*
X143619104Y-111277339D01*
X143536174Y-111217087D01*
X143325802Y-111109897D01*
X143101247Y-111036934D01*
X143101248Y-111036934D01*
X142868052Y-111000000D01*
X142631948Y-111000000D01*
X142398752Y-111036934D01*
X142174197Y-111109897D01*
X141963830Y-111217084D01*
X141880894Y-111277340D01*
X142579766Y-111976212D01*
X142537708Y-111987482D01*
X142412292Y-112059890D01*
X142309890Y-112162292D01*
X142237482Y-112287708D01*
X142226212Y-112329765D01*
X141527340Y-111630894D01*
X141467084Y-111713830D01*
X141359897Y-111924197D01*
X141286934Y-112148752D01*
X141250000Y-112381947D01*
X140500500Y-112381947D01*
X140500500Y-104881902D01*
X141249500Y-104881902D01*
X141249500Y-105118097D01*
X141286446Y-105351368D01*
X141359433Y-105575996D01*
X141466657Y-105786433D01*
X141605483Y-105977510D01*
X141772490Y-106144517D01*
X141963567Y-106283343D01*
X142114055Y-106360020D01*
X142171941Y-106389515D01*
X142222737Y-106437490D01*
X142239532Y-106505311D01*
X142216995Y-106571446D01*
X142171941Y-106610485D01*
X141963566Y-106716657D01*
X141854550Y-106795862D01*
X141772490Y-106855483D01*
X141772488Y-106855485D01*
X141772487Y-106855485D01*
X141605485Y-107022487D01*
X141605485Y-107022488D01*
X141605483Y-107022490D01*
X141545862Y-107104550D01*
X141466657Y-107213566D01*
X141359433Y-107424003D01*
X141286446Y-107648631D01*
X141249500Y-107881902D01*
X141249500Y-108118097D01*
X141286446Y-108351368D01*
X141359433Y-108575996D01*
X141466657Y-108786433D01*
X141605483Y-108977510D01*
X141772490Y-109144517D01*
X141963567Y-109283343D01*
X142062991Y-109334002D01*
X142174003Y-109390566D01*
X142174005Y-109390566D01*
X142174008Y-109390568D01*
X142294412Y-109429689D01*
X142398631Y-109463553D01*
X142631903Y-109500500D01*
X142631908Y-109500500D01*
X142868097Y-109500500D01*
X143101368Y-109463553D01*
X143325992Y-109390568D01*
X143536433Y-109283343D01*
X143727510Y-109144517D01*
X143894517Y-108977510D01*
X144033343Y-108786433D01*
X144140568Y-108575992D01*
X144213553Y-108351368D01*
X144250500Y-108118097D01*
X144250500Y-107881902D01*
X144213553Y-107648631D01*
X144140566Y-107424003D01*
X144033342Y-107213566D01*
X143894517Y-107022490D01*
X143727510Y-106855483D01*
X143536433Y-106716657D01*
X143328057Y-106610484D01*
X143277262Y-106562511D01*
X143260467Y-106494690D01*
X143283004Y-106428555D01*
X143328057Y-106389515D01*
X143536433Y-106283343D01*
X143727510Y-106144517D01*
X143894517Y-105977510D01*
X144033343Y-105786433D01*
X144140568Y-105575992D01*
X144213553Y-105351368D01*
X144250500Y-105118097D01*
X144250500Y-104881902D01*
X147749500Y-104881902D01*
X147749500Y-105118097D01*
X147786446Y-105351368D01*
X147859433Y-105575996D01*
X147966657Y-105786433D01*
X148105483Y-105977510D01*
X148272490Y-106144517D01*
X148463567Y-106283343D01*
X148614055Y-106360020D01*
X148671941Y-106389515D01*
X148722737Y-106437490D01*
X148739532Y-106505311D01*
X148716995Y-106571446D01*
X148671941Y-106610485D01*
X148463566Y-106716657D01*
X148354550Y-106795862D01*
X148272490Y-106855483D01*
X148272488Y-106855485D01*
X148272487Y-106855485D01*
X148105485Y-107022487D01*
X148105485Y-107022488D01*
X148105483Y-107022490D01*
X148045862Y-107104550D01*
X147966657Y-107213566D01*
X147859433Y-107424003D01*
X147786446Y-107648631D01*
X147749500Y-107881902D01*
X147749500Y-108118097D01*
X147786446Y-108351368D01*
X147859433Y-108575996D01*
X147966657Y-108786433D01*
X148105483Y-108977510D01*
X148272490Y-109144517D01*
X148463567Y-109283343D01*
X148562991Y-109334002D01*
X148674003Y-109390566D01*
X148674005Y-109390566D01*
X148674008Y-109390568D01*
X148794412Y-109429689D01*
X148898631Y-109463553D01*
X149131903Y-109500500D01*
X149131908Y-109500500D01*
X149368097Y-109500500D01*
X149601368Y-109463553D01*
X149825992Y-109390568D01*
X150036433Y-109283343D01*
X150227510Y-109144517D01*
X150394517Y-108977510D01*
X150533343Y-108786433D01*
X150640568Y-108575992D01*
X150713553Y-108351368D01*
X150750500Y-108118097D01*
X150750500Y-107881902D01*
X150713553Y-107648631D01*
X150640566Y-107424003D01*
X150533342Y-107213566D01*
X150394517Y-107022490D01*
X150227510Y-106855483D01*
X150036433Y-106716657D01*
X149828057Y-106610484D01*
X149777262Y-106562511D01*
X149760467Y-106494690D01*
X149783004Y-106428555D01*
X149828057Y-106389515D01*
X150036433Y-106283343D01*
X150227510Y-106144517D01*
X150394517Y-105977510D01*
X150533343Y-105786433D01*
X150640568Y-105575992D01*
X150713553Y-105351368D01*
X150750500Y-105118097D01*
X150750500Y-104881902D01*
X150713553Y-104648631D01*
X150640566Y-104424003D01*
X150533342Y-104213566D01*
X150394517Y-104022490D01*
X150227510Y-103855483D01*
X150036433Y-103716657D01*
X149825996Y-103609433D01*
X149601368Y-103536446D01*
X149368097Y-103499500D01*
X149368092Y-103499500D01*
X149131908Y-103499500D01*
X149131903Y-103499500D01*
X148898631Y-103536446D01*
X148674003Y-103609433D01*
X148463566Y-103716657D01*
X148354550Y-103795862D01*
X148272490Y-103855483D01*
X148272488Y-103855485D01*
X148272487Y-103855485D01*
X148105485Y-104022487D01*
X148105485Y-104022488D01*
X148105483Y-104022490D01*
X148045862Y-104104550D01*
X147966657Y-104213566D01*
X147859433Y-104424003D01*
X147786446Y-104648631D01*
X147749500Y-104881902D01*
X144250500Y-104881902D01*
X144213553Y-104648631D01*
X144140566Y-104424003D01*
X144033342Y-104213566D01*
X143894517Y-104022490D01*
X143727510Y-103855483D01*
X143536433Y-103716657D01*
X143325996Y-103609433D01*
X143101368Y-103536446D01*
X142868097Y-103499500D01*
X142868092Y-103499500D01*
X142631908Y-103499500D01*
X142631903Y-103499500D01*
X142398631Y-103536446D01*
X142174003Y-103609433D01*
X141963566Y-103716657D01*
X141854550Y-103795862D01*
X141772490Y-103855483D01*
X141772488Y-103855485D01*
X141772487Y-103855485D01*
X141605485Y-104022487D01*
X141605485Y-104022488D01*
X141605483Y-104022490D01*
X141545862Y-104104550D01*
X141466657Y-104213566D01*
X141359433Y-104424003D01*
X141286446Y-104648631D01*
X141249500Y-104881902D01*
X140500500Y-104881902D01*
X140500500Y-99124000D01*
X140520185Y-99056961D01*
X140572989Y-99011206D01*
X140624500Y-99000000D01*
X141880988Y-99000000D01*
X141948027Y-99019685D01*
G37*
%TD.AperFunction*%
%TD*%
M02*
