%TF.GenerationSoftware,KiCad,Pcbnew,10.0.0-1.fc44*%
%TF.CreationDate,2026-08-26T22:40:02+01:00*%
%TF.ProjectId,snippy,736e6970-7079-42e6-9b69-6361645f7063,rev?*%
%TF.SameCoordinates,Original*%
%TF.FileFunction,Legend,Bot*%
%TF.FilePolarity,Positive*%
%FSLAX46Y46*%
G04 Gerber Fmt 4.6, Leading zero omitted, Abs format (unit mm)*
G04 Created by KiCad (PCBNEW 10.0.0-1.fc44) date 2026-08-26 22:40:02*
%MOMM*%
%LPD*%
G01*
G04 APERTURE LIST*
%ADD10C,0.100000*%
%ADD11C,0.000000*%
G04 APERTURE END LIST*
D10*
X151053258Y-135154800D02*
X150767544Y-135250038D01*
X150767544Y-135250038D02*
X150291353Y-135250038D01*
X150291353Y-135250038D02*
X150100877Y-135154800D01*
X150100877Y-135154800D02*
X150005639Y-135059561D01*
X150005639Y-135059561D02*
X149910401Y-134869085D01*
X149910401Y-134869085D02*
X149910401Y-134678609D01*
X149910401Y-134678609D02*
X150005639Y-134488133D01*
X150005639Y-134488133D02*
X150100877Y-134392895D01*
X150100877Y-134392895D02*
X150291353Y-134297657D01*
X150291353Y-134297657D02*
X150672306Y-134202419D01*
X150672306Y-134202419D02*
X150862782Y-134107180D01*
X150862782Y-134107180D02*
X150958020Y-134011942D01*
X150958020Y-134011942D02*
X151053258Y-133821466D01*
X151053258Y-133821466D02*
X151053258Y-133630990D01*
X151053258Y-133630990D02*
X150958020Y-133440514D01*
X150958020Y-133440514D02*
X150862782Y-133345276D01*
X150862782Y-133345276D02*
X150672306Y-133250038D01*
X150672306Y-133250038D02*
X150196115Y-133250038D01*
X150196115Y-133250038D02*
X149910401Y-133345276D01*
X149053258Y-135250038D02*
X149053258Y-133250038D01*
X149053258Y-133250038D02*
X147910401Y-135250038D01*
X147910401Y-135250038D02*
X147910401Y-133250038D01*
X146958020Y-135250038D02*
X146958020Y-133250038D01*
X146005639Y-135250038D02*
X146005639Y-133250038D01*
X146005639Y-133250038D02*
X145243734Y-133250038D01*
X145243734Y-133250038D02*
X145053258Y-133345276D01*
X145053258Y-133345276D02*
X144958020Y-133440514D01*
X144958020Y-133440514D02*
X144862782Y-133630990D01*
X144862782Y-133630990D02*
X144862782Y-133916704D01*
X144862782Y-133916704D02*
X144958020Y-134107180D01*
X144958020Y-134107180D02*
X145053258Y-134202419D01*
X145053258Y-134202419D02*
X145243734Y-134297657D01*
X145243734Y-134297657D02*
X146005639Y-134297657D01*
X144005639Y-135250038D02*
X144005639Y-133250038D01*
X144005639Y-133250038D02*
X143243734Y-133250038D01*
X143243734Y-133250038D02*
X143053258Y-133345276D01*
X143053258Y-133345276D02*
X142958020Y-133440514D01*
X142958020Y-133440514D02*
X142862782Y-133630990D01*
X142862782Y-133630990D02*
X142862782Y-133916704D01*
X142862782Y-133916704D02*
X142958020Y-134107180D01*
X142958020Y-134107180D02*
X143053258Y-134202419D01*
X143053258Y-134202419D02*
X143243734Y-134297657D01*
X143243734Y-134297657D02*
X144005639Y-134297657D01*
X141624687Y-134297657D02*
X141624687Y-135250038D01*
X142291353Y-133250038D02*
X141624687Y-134297657D01*
X141624687Y-134297657D02*
X140958020Y-133250038D01*
D11*
%TO.C,G\u002A\u002A\u002A*%
G36*
X149482466Y-124101100D02*
G01*
X149692627Y-124377625D01*
X149866370Y-124683270D01*
X149942214Y-124858291D01*
X150036897Y-125164181D01*
X150089796Y-125478298D01*
X150097370Y-125703592D01*
X150100399Y-125793683D01*
X150068194Y-126103380D01*
X149992671Y-126400430D01*
X149929239Y-126588348D01*
X149972190Y-126770733D01*
X149989385Y-126854024D01*
X150002796Y-126961079D01*
X150007214Y-127082406D01*
X150004783Y-127189878D01*
X150003770Y-127234640D01*
X150000682Y-127295810D01*
X149979735Y-127487244D01*
X149939344Y-127653616D01*
X149874555Y-127811388D01*
X149780415Y-127977024D01*
X149763820Y-128002395D01*
X149683721Y-128109492D01*
X149587323Y-128220946D01*
X149485297Y-128325640D01*
X149388313Y-128412454D01*
X149307042Y-128470270D01*
X149281939Y-128485487D01*
X149241701Y-128520367D01*
X149221337Y-128564525D01*
X149219969Y-128626925D01*
X149236724Y-128716532D01*
X149270726Y-128842312D01*
X149285860Y-128897693D01*
X149302403Y-128973086D01*
X149313437Y-129052497D01*
X149319954Y-129146917D01*
X149321564Y-129211625D01*
X149322951Y-129267342D01*
X149323421Y-129424764D01*
X149323321Y-129456831D01*
X149321997Y-129601790D01*
X149321376Y-129621065D01*
X149318444Y-129712104D01*
X149311443Y-129799022D01*
X149299773Y-129873791D01*
X149282213Y-129947659D01*
X149257543Y-130031874D01*
X149232648Y-130107993D01*
X149131070Y-130357913D01*
X149002932Y-130603485D01*
X148854191Y-130835997D01*
X148690804Y-131046736D01*
X148518727Y-131226992D01*
X148343916Y-131368053D01*
X148262855Y-131420879D01*
X148000421Y-131566828D01*
X147714694Y-131693697D01*
X147422423Y-131794601D01*
X147140359Y-131862657D01*
X147124480Y-131865464D01*
X146885611Y-131892288D01*
X146619245Y-131897741D01*
X146339232Y-131882989D01*
X146059421Y-131849199D01*
X145793664Y-131797537D01*
X145555809Y-131729171D01*
X145510424Y-131712929D01*
X145308154Y-131631453D01*
X145098416Y-131534177D01*
X144894704Y-131428038D01*
X144839755Y-131395800D01*
X145327788Y-131395800D01*
X145331475Y-131404513D01*
X145370138Y-131432887D01*
X145444688Y-131468716D01*
X145547401Y-131509395D01*
X145670553Y-131552320D01*
X145806423Y-131594887D01*
X145947286Y-131634489D01*
X146085419Y-131668522D01*
X146213100Y-131694382D01*
X146239502Y-131698683D01*
X146369110Y-131714359D01*
X146513551Y-131725347D01*
X146646196Y-131729489D01*
X146877974Y-131729489D01*
X146917449Y-131649824D01*
X147112190Y-131649824D01*
X147122069Y-131671804D01*
X147162367Y-131674199D01*
X147238636Y-131660383D01*
X147356427Y-131633735D01*
X147507880Y-131594853D01*
X147662584Y-131543169D01*
X147822629Y-131475599D01*
X148004632Y-131385788D01*
X148034021Y-131370210D01*
X148204538Y-131261910D01*
X148332792Y-131141534D01*
X148423657Y-131001889D01*
X148482006Y-130835785D01*
X148512714Y-130636030D01*
X148517131Y-130492491D01*
X148498337Y-130357111D01*
X148451497Y-130248219D01*
X148374224Y-130157570D01*
X148333341Y-130122029D01*
X148269949Y-130078211D01*
X148209594Y-130059619D01*
X148141256Y-130066173D01*
X148086870Y-130085862D01*
X148053911Y-130097794D01*
X147936538Y-130154401D01*
X147914838Y-130165181D01*
X147777998Y-130225541D01*
X147631424Y-130280028D01*
X147500473Y-130319064D01*
X147448905Y-130331747D01*
X147363066Y-130353059D01*
X147302535Y-130368362D01*
X147277982Y-130374973D01*
X147280067Y-130397056D01*
X147291909Y-130453374D01*
X147310961Y-130531533D01*
X147332504Y-130646752D01*
X147334687Y-130707959D01*
X147339932Y-130855017D01*
X147313998Y-131077279D01*
X147256302Y-131302446D01*
X147168444Y-131519423D01*
X147161483Y-131533602D01*
X147127179Y-131604882D01*
X147112190Y-131649824D01*
X146917449Y-131649824D01*
X146958273Y-131567438D01*
X146958783Y-131566409D01*
X147058177Y-131339464D01*
X147131783Y-131115366D01*
X147177855Y-130902177D01*
X147194649Y-130707959D01*
X147180421Y-130540776D01*
X147165391Y-130477303D01*
X147144644Y-130414440D01*
X147126540Y-130383944D01*
X147108802Y-130378726D01*
X147049679Y-130369709D01*
X146961774Y-130360464D01*
X146856588Y-130352341D01*
X146809546Y-130348779D01*
X146625979Y-130327853D01*
X146421016Y-130295877D01*
X146212000Y-130256070D01*
X146016276Y-130211649D01*
X145851188Y-130165831D01*
X145770918Y-130141720D01*
X145712849Y-130129092D01*
X145680017Y-130131196D01*
X145661897Y-130146984D01*
X145651323Y-130164901D01*
X145608217Y-130264180D01*
X145562039Y-130409960D01*
X145513111Y-130601138D01*
X145461753Y-130836611D01*
X145441516Y-130934091D01*
X145413331Y-131064346D01*
X145387881Y-131175877D01*
X145367347Y-131259222D01*
X145353907Y-131304918D01*
X145335825Y-131358231D01*
X145327788Y-131395800D01*
X144839755Y-131395800D01*
X144710511Y-131319973D01*
X144559330Y-131216918D01*
X144434575Y-131117393D01*
X144183718Y-130885667D01*
X143943365Y-130623185D01*
X143803429Y-130444389D01*
X144007373Y-130444389D01*
X144241446Y-130668802D01*
X144358259Y-130779532D01*
X144482212Y-130892412D01*
X144590206Y-130983700D01*
X144691625Y-131060863D01*
X144795853Y-131131369D01*
X144912273Y-131202686D01*
X144964751Y-131233040D01*
X145048135Y-131278468D01*
X145112064Y-131309728D01*
X145145796Y-131321361D01*
X145150590Y-131320559D01*
X145175916Y-131291607D01*
X145194596Y-131231333D01*
X145211704Y-131142411D01*
X145253847Y-130955210D01*
X145303770Y-130765079D01*
X145358375Y-130582082D01*
X145414563Y-130416285D01*
X145469237Y-130277751D01*
X145519298Y-130176544D01*
X145529430Y-130159187D01*
X145556856Y-130109809D01*
X145567864Y-130085862D01*
X145567417Y-130085027D01*
X145541983Y-130069200D01*
X145485228Y-130039872D01*
X145407958Y-130002665D01*
X145312489Y-129955603D01*
X145306029Y-129951967D01*
X148262296Y-129951967D01*
X148391103Y-130010937D01*
X148442636Y-130036878D01*
X148525234Y-130097906D01*
X148592082Y-130183710D01*
X148642577Y-130274259D01*
X148677746Y-130373088D01*
X148695275Y-130486681D01*
X148695425Y-130492491D01*
X148699013Y-130631144D01*
X148698995Y-130632829D01*
X148699157Y-130713676D01*
X148701262Y-130771254D01*
X148704865Y-130793195D01*
X148715181Y-130786552D01*
X148747847Y-130746597D01*
X148794309Y-130678154D01*
X148848965Y-130590055D01*
X148906215Y-130491129D01*
X148960458Y-130390208D01*
X148981594Y-130348178D01*
X149069952Y-130148720D01*
X149137860Y-129953826D01*
X149181962Y-129774330D01*
X149198898Y-129621065D01*
X149198567Y-129540885D01*
X149190660Y-129485303D01*
X149169903Y-129446930D01*
X149131173Y-129409778D01*
X149085622Y-129374452D01*
X148950628Y-129304438D01*
X148810786Y-129280718D01*
X148715115Y-129280718D01*
X148605861Y-129490784D01*
X148585430Y-129528597D01*
X148517787Y-129640459D01*
X148444934Y-129745946D01*
X148379452Y-129826409D01*
X148262296Y-129951967D01*
X145306029Y-129951967D01*
X145083496Y-129826710D01*
X144843637Y-129672130D01*
X144605691Y-129500371D01*
X144382435Y-129319938D01*
X144241336Y-129198649D01*
X144183987Y-129269693D01*
X144162259Y-129300504D01*
X144109493Y-129415044D01*
X144066886Y-129570726D01*
X144035236Y-129763156D01*
X144015339Y-129987937D01*
X144007992Y-130240673D01*
X144007373Y-130444389D01*
X143803429Y-130444389D01*
X143722440Y-130340910D01*
X143529863Y-130049807D01*
X143374558Y-129760842D01*
X143323407Y-129647094D01*
X143258103Y-129490001D01*
X143193246Y-129322839D01*
X143132722Y-129156361D01*
X143080417Y-129001325D01*
X143040218Y-128868485D01*
X143016010Y-128768596D01*
X143003781Y-128639876D01*
X143009932Y-128542902D01*
X143146589Y-128542902D01*
X143147931Y-128736115D01*
X143176401Y-128908601D01*
X143181758Y-128927579D01*
X143227144Y-129063314D01*
X143290966Y-129226625D01*
X143367864Y-129405832D01*
X143452481Y-129589255D01*
X143539459Y-129765213D01*
X143623440Y-129922026D01*
X143699067Y-130048015D01*
X143732345Y-130098032D01*
X143783971Y-130171598D01*
X143823088Y-130222197D01*
X143843121Y-130241021D01*
X143847472Y-130234443D01*
X143854513Y-130190890D01*
X143859383Y-130115537D01*
X143861222Y-130018951D01*
X143867851Y-129845635D01*
X143896801Y-129631801D01*
X143947235Y-129446226D01*
X144017513Y-129294513D01*
X144105997Y-129182265D01*
X144174127Y-129118622D01*
X144113892Y-129049623D01*
X144085323Y-129014849D01*
X144006195Y-128903616D01*
X143916065Y-128760125D01*
X143819819Y-128593047D01*
X143722344Y-128411053D01*
X143628525Y-128222813D01*
X143613874Y-128190889D01*
X144223441Y-128190889D01*
X144237041Y-128374969D01*
X144293562Y-128599766D01*
X144391242Y-128805551D01*
X144527109Y-128988499D01*
X144669549Y-129118622D01*
X144698188Y-129144785D01*
X144901504Y-129270582D01*
X145134083Y-129362067D01*
X145187496Y-129375131D01*
X145328950Y-129393535D01*
X145487599Y-129397807D01*
X145643717Y-129387895D01*
X145777581Y-129363746D01*
X145863453Y-129337273D01*
X146080341Y-129237098D01*
X146234698Y-129124669D01*
X148761178Y-129124669D01*
X148770948Y-129134052D01*
X148816572Y-129145081D01*
X148886933Y-129149874D01*
X148928324Y-129152103D01*
X149020893Y-129167306D01*
X149094662Y-129191887D01*
X149108977Y-129198959D01*
X149160639Y-129222997D01*
X149186801Y-129232703D01*
X149190840Y-129211625D01*
X149183659Y-129153464D01*
X149166930Y-129067429D01*
X149142447Y-128962731D01*
X149112003Y-128848582D01*
X149089988Y-128776668D01*
X149057121Y-128701305D01*
X149018998Y-128663787D01*
X148968208Y-128658254D01*
X148897340Y-128678846D01*
X148896012Y-128679354D01*
X148846618Y-128712932D01*
X148832607Y-128769963D01*
X148829962Y-128804125D01*
X148816986Y-128882136D01*
X148796881Y-128968620D01*
X148782356Y-129024765D01*
X148767173Y-129089696D01*
X148761178Y-129124669D01*
X146234698Y-129124669D01*
X146271955Y-129097532D01*
X146433391Y-128921880D01*
X146458924Y-128887097D01*
X146560916Y-128722461D01*
X146628309Y-128556538D01*
X146665598Y-128375383D01*
X146677276Y-128165051D01*
X146675498Y-128086048D01*
X146644834Y-127858496D01*
X146574299Y-127654561D01*
X146461525Y-127468724D01*
X146304142Y-127295462D01*
X146250930Y-127252079D01*
X147041389Y-127252079D01*
X147079559Y-127500472D01*
X147160740Y-127742199D01*
X147281188Y-127959908D01*
X147438107Y-128150238D01*
X147455797Y-128165051D01*
X147628697Y-128309829D01*
X147850162Y-128435319D01*
X148099704Y-128523349D01*
X148106539Y-128525066D01*
X148208337Y-128543008D01*
X148333603Y-128555135D01*
X148459817Y-128559205D01*
X148556873Y-128555607D01*
X148811937Y-128515866D01*
X149048576Y-128434721D01*
X149262857Y-128315199D01*
X149450850Y-128160326D01*
X149608624Y-127973127D01*
X149732249Y-127756629D01*
X149817792Y-127513857D01*
X149834090Y-127443066D01*
X149863237Y-127189878D01*
X149847892Y-126943956D01*
X149790787Y-126709614D01*
X149694655Y-126491163D01*
X149562231Y-126292919D01*
X149396246Y-126119193D01*
X149199435Y-125974298D01*
X148974530Y-125862549D01*
X148724265Y-125788258D01*
X148695168Y-125782374D01*
X148560087Y-125760352D01*
X148442182Y-125753752D01*
X148320550Y-125762509D01*
X148174286Y-125786559D01*
X148110746Y-125800261D01*
X147874033Y-125880288D01*
X147659450Y-125998758D01*
X147470654Y-126150942D01*
X147311298Y-126332111D01*
X147185039Y-126537538D01*
X147151562Y-126621673D01*
X147095531Y-126762494D01*
X147046429Y-127002250D01*
X147041389Y-127252079D01*
X146250930Y-127252079D01*
X146164791Y-127181851D01*
X145957134Y-127062985D01*
X145734729Y-126987560D01*
X145502698Y-126956632D01*
X145266165Y-126971259D01*
X145030253Y-127032499D01*
X144949157Y-127064665D01*
X144734568Y-127181337D01*
X144555143Y-127329711D01*
X144412600Y-127507320D01*
X144308657Y-127711696D01*
X144245031Y-127940375D01*
X144223441Y-128190889D01*
X143613874Y-128190889D01*
X143543250Y-128037000D01*
X143521164Y-127991763D01*
X143485722Y-127948487D01*
X143443181Y-127936295D01*
X143369984Y-127945055D01*
X143312328Y-127981135D01*
X143263955Y-128054732D01*
X143218166Y-128163762D01*
X143170594Y-128346329D01*
X143146589Y-128542902D01*
X143009932Y-128542902D01*
X143015456Y-128455825D01*
X143055449Y-128259116D01*
X143121815Y-128062730D01*
X143152805Y-127984582D01*
X143177097Y-127909143D01*
X143190076Y-127837411D01*
X143194645Y-127752169D01*
X143193706Y-127636200D01*
X143193703Y-127636060D01*
X143191031Y-127534251D01*
X143185310Y-127457794D01*
X143172881Y-127393017D01*
X143150084Y-127326247D01*
X143113260Y-127243812D01*
X143058747Y-127132041D01*
X143012631Y-127033641D01*
X142960348Y-126910334D01*
X142918098Y-126797826D01*
X142892142Y-126711909D01*
X142884982Y-126675431D01*
X142872996Y-126582312D01*
X142863904Y-126468912D01*
X142857864Y-126344965D01*
X142855036Y-126220203D01*
X142855262Y-126171978D01*
X142944272Y-126171978D01*
X142944419Y-126321299D01*
X142967350Y-126489860D01*
X143011970Y-126670164D01*
X143077182Y-126854714D01*
X143161889Y-127036011D01*
X143185895Y-127080709D01*
X143225641Y-127148204D01*
X143257679Y-127186001D01*
X143291142Y-127203214D01*
X143335161Y-127208958D01*
X143350410Y-127209574D01*
X143443824Y-127201657D01*
X143546278Y-127172108D01*
X143662661Y-127118375D01*
X143797867Y-127037902D01*
X143956786Y-126928138D01*
X144144311Y-126786526D01*
X144182315Y-126756224D01*
X144251749Y-126696528D01*
X144299999Y-126648931D01*
X144318366Y-126621673D01*
X144314457Y-126605455D01*
X144289275Y-126555668D01*
X144248277Y-126493175D01*
X144227361Y-126461662D01*
X144169414Y-126352838D01*
X144107807Y-126211726D01*
X144046206Y-126049042D01*
X143988280Y-125875505D01*
X143937694Y-125701833D01*
X143898116Y-125538744D01*
X143873214Y-125396956D01*
X143865800Y-125347832D01*
X143852805Y-125287978D01*
X143841054Y-125260523D01*
X143839834Y-125260310D01*
X143813837Y-125277030D01*
X143762336Y-125321340D01*
X143692162Y-125387097D01*
X143610144Y-125468160D01*
X143528552Y-125547518D01*
X143415885Y-125649734D01*
X143305357Y-125743146D01*
X143212182Y-125814512D01*
X143170904Y-125843935D01*
X143093537Y-125901146D01*
X143035324Y-125946977D01*
X143006481Y-125973530D01*
X142968007Y-126049397D01*
X142944272Y-126171978D01*
X142855262Y-126171978D01*
X142855579Y-126104358D01*
X142859651Y-126007164D01*
X142867411Y-125938352D01*
X142879017Y-125907656D01*
X142895987Y-125892419D01*
X142903683Y-125848699D01*
X142874543Y-125799195D01*
X142812996Y-125754198D01*
X142699789Y-125676641D01*
X142600226Y-125572082D01*
X142532124Y-125458285D01*
X142503975Y-125364876D01*
X142498841Y-125221082D01*
X142516786Y-125153111D01*
X144007530Y-125153111D01*
X144014817Y-125265130D01*
X144039096Y-125422689D01*
X144077417Y-125601763D01*
X144126679Y-125790581D01*
X144183780Y-125977371D01*
X144245619Y-126150361D01*
X144309094Y-126297779D01*
X144342792Y-126364523D01*
X144387636Y-126444452D01*
X144423939Y-126498904D01*
X144446046Y-126518759D01*
X144448359Y-126518404D01*
X144483033Y-126498844D01*
X144539786Y-126455429D01*
X144607562Y-126396529D01*
X144624610Y-126381005D01*
X144752860Y-126269251D01*
X144906909Y-126141611D01*
X145074682Y-126007598D01*
X145244104Y-125876721D01*
X145403099Y-125758493D01*
X145539592Y-125662425D01*
X145627410Y-125603018D01*
X145645110Y-125590983D01*
X149195624Y-125590983D01*
X149404639Y-125833346D01*
X149408500Y-125837824D01*
X149495179Y-125938936D01*
X149578045Y-126036576D01*
X149647873Y-126119820D01*
X149695439Y-126177741D01*
X149729323Y-126218117D01*
X149771635Y-126262515D01*
X149795742Y-126279773D01*
X149802922Y-126276493D01*
X149820114Y-126236578D01*
X149833900Y-126154862D01*
X149843855Y-126035813D01*
X149849553Y-125883900D01*
X149850569Y-125703592D01*
X149849824Y-125637685D01*
X149845208Y-125487527D01*
X149835761Y-125367218D01*
X149820178Y-125263577D01*
X149797156Y-125163421D01*
X149792042Y-125144812D01*
X149746126Y-125009092D01*
X149682631Y-124856356D01*
X149607858Y-124699198D01*
X149528104Y-124550212D01*
X149449670Y-124421992D01*
X149378855Y-124327132D01*
X149277032Y-124211070D01*
X149277032Y-124759268D01*
X149276995Y-124810106D01*
X149275968Y-124989761D01*
X149273213Y-125130469D01*
X149268300Y-125239500D01*
X149260801Y-125324122D01*
X149250286Y-125391607D01*
X149236328Y-125449225D01*
X149222302Y-125498072D01*
X149195624Y-125590983D01*
X145645110Y-125590983D01*
X145704593Y-125550537D01*
X145758327Y-125513692D01*
X145780424Y-125498072D01*
X145780205Y-125492430D01*
X145768880Y-125450932D01*
X145744757Y-125376119D01*
X145710500Y-125276085D01*
X145668774Y-125158927D01*
X145604050Y-124973952D01*
X145461964Y-124509412D01*
X145354816Y-124062455D01*
X145340514Y-123993846D01*
X145320941Y-123905113D01*
X145305765Y-123842559D01*
X145297430Y-123816649D01*
X145285696Y-123818410D01*
X145243082Y-123839067D01*
X145196929Y-123866660D01*
X145182014Y-123875577D01*
X145122320Y-123917226D01*
X145008398Y-124008278D01*
X144875282Y-124125270D01*
X144730009Y-124261534D01*
X144579614Y-124410402D01*
X144431135Y-124565207D01*
X144291608Y-124719282D01*
X144286784Y-124724788D01*
X144186633Y-124839689D01*
X144113823Y-124925606D01*
X144064001Y-124989187D01*
X144032814Y-125037080D01*
X144015908Y-125075933D01*
X144008932Y-125112394D01*
X144007530Y-125153111D01*
X142516786Y-125153111D01*
X142536140Y-125079800D01*
X142612910Y-124947323D01*
X142726189Y-124829944D01*
X142873015Y-124733958D01*
X142884050Y-124728076D01*
X142931697Y-124695845D01*
X142951040Y-124670429D01*
X142948473Y-124663883D01*
X142916578Y-124630198D01*
X142853892Y-124577819D01*
X142848830Y-124573957D01*
X143623252Y-124573957D01*
X143624557Y-124576390D01*
X143656009Y-124589845D01*
X143720889Y-124606190D01*
X143807766Y-124622421D01*
X143825676Y-124625338D01*
X143914657Y-124640654D01*
X143983489Y-124653820D01*
X144018521Y-124662256D01*
X144057837Y-124657739D01*
X144116520Y-124612618D01*
X144187399Y-124527221D01*
X144210878Y-124498051D01*
X144267996Y-124433473D01*
X144346961Y-124348131D01*
X144440665Y-124249672D01*
X144541998Y-124145743D01*
X144614665Y-124071927D01*
X144698966Y-123984981D01*
X144754620Y-123924672D01*
X144784914Y-123886674D01*
X144793133Y-123866660D01*
X144782562Y-123860304D01*
X144756487Y-123863279D01*
X144675481Y-123885843D01*
X144555631Y-123932543D01*
X144416991Y-123996658D01*
X144270651Y-124073017D01*
X144127697Y-124156450D01*
X144048419Y-124208570D01*
X143951324Y-124278418D01*
X143854221Y-124353377D01*
X143764986Y-124426929D01*
X143691495Y-124492556D01*
X143641625Y-124543738D01*
X143623252Y-124573957D01*
X142848830Y-124573957D01*
X142767564Y-124511950D01*
X142664744Y-124437794D01*
X142552583Y-124360553D01*
X142438229Y-124285432D01*
X142328833Y-124217633D01*
X142264631Y-124179133D01*
X142165675Y-124116907D01*
X142098902Y-124066211D01*
X142058141Y-124018628D01*
X142037220Y-123965743D01*
X142029968Y-123899139D01*
X142030214Y-123810402D01*
X142048298Y-123627289D01*
X142113086Y-123400686D01*
X142223524Y-123185521D01*
X142242255Y-123157490D01*
X142333867Y-123040223D01*
X142450298Y-122912433D01*
X142579270Y-122786307D01*
X142708503Y-122674032D01*
X142825719Y-122587796D01*
X142951941Y-122512974D01*
X143091796Y-122448516D01*
X143845372Y-122448516D01*
X143845509Y-122462620D01*
X143860504Y-122513244D01*
X143889878Y-122590632D01*
X143930077Y-122684864D01*
X143937516Y-122701542D01*
X143987435Y-122814876D01*
X144047741Y-122953544D01*
X144111496Y-123101529D01*
X144171763Y-123242816D01*
X144190187Y-123286245D01*
X144245219Y-123415624D01*
X144296818Y-123536468D01*
X144339898Y-123636880D01*
X144369370Y-123704962D01*
X144401658Y-123771088D01*
X144439550Y-123816646D01*
X144484633Y-123826704D01*
X144547543Y-123807375D01*
X144579374Y-123794564D01*
X144616551Y-123781278D01*
X145405376Y-123781278D01*
X145412168Y-123829766D01*
X145428088Y-123898278D01*
X145458932Y-124009562D01*
X145501103Y-124150134D01*
X145551931Y-124311682D01*
X145608747Y-124485892D01*
X145668881Y-124664453D01*
X145729663Y-124839050D01*
X145788424Y-125001370D01*
X145828750Y-125107354D01*
X145874520Y-125220647D01*
X145913880Y-125310535D01*
X145943614Y-125369735D01*
X145960507Y-125390966D01*
X145975411Y-125388077D01*
X146027602Y-125370019D01*
X146096030Y-125340995D01*
X146127322Y-125326857D01*
X146483274Y-125191931D01*
X146841289Y-125104134D01*
X147204540Y-125062670D01*
X147309438Y-125056102D01*
X147408362Y-125047256D01*
X147481055Y-125037775D01*
X147516638Y-125028839D01*
X147528116Y-125011941D01*
X147538435Y-124967085D01*
X147546131Y-124890009D01*
X147551707Y-124775453D01*
X147555660Y-124618156D01*
X147555707Y-124615570D01*
X147556111Y-124485870D01*
X147553485Y-124337157D01*
X147548287Y-124176879D01*
X147540973Y-124012481D01*
X147532000Y-123851410D01*
X147521826Y-123701111D01*
X147510906Y-123569031D01*
X147499697Y-123462615D01*
X147489809Y-123396950D01*
X147641040Y-123396950D01*
X147643866Y-123453503D01*
X147652772Y-123539091D01*
X147666826Y-123643211D01*
X147686022Y-123780813D01*
X147717743Y-124061703D01*
X147738358Y-124330152D01*
X147743928Y-124485870D01*
X147747114Y-124574935D01*
X147743260Y-124784825D01*
X147736971Y-124882023D01*
X147732934Y-124965894D01*
X147739603Y-125019851D01*
X147764144Y-125052248D01*
X147813720Y-125071439D01*
X147895496Y-125085780D01*
X148016635Y-125103624D01*
X148168308Y-125134575D01*
X148354478Y-125185972D01*
X148545885Y-125250102D01*
X148724870Y-125321008D01*
X148873775Y-125392735D01*
X148898972Y-125406419D01*
X148978314Y-125447762D01*
X149038781Y-125476654D01*
X149068902Y-125487523D01*
X149071052Y-125487256D01*
X149090691Y-125459374D01*
X149108755Y-125389392D01*
X149124716Y-125282650D01*
X149138047Y-125144487D01*
X149148222Y-124980243D01*
X149154714Y-124795257D01*
X149156994Y-124594870D01*
X149156994Y-124098341D01*
X149086967Y-124025197D01*
X149028318Y-123972013D01*
X148930085Y-123896953D01*
X148812485Y-123816701D01*
X148688335Y-123739939D01*
X148570447Y-123675345D01*
X148497485Y-123640556D01*
X148374405Y-123587869D01*
X148240115Y-123535867D01*
X148102553Y-123487081D01*
X147969654Y-123444040D01*
X147849358Y-123409273D01*
X147749601Y-123385312D01*
X147678322Y-123374684D01*
X147643457Y-123379920D01*
X147641040Y-123396950D01*
X147489809Y-123396950D01*
X147488658Y-123389310D01*
X147478244Y-123356561D01*
X147460426Y-123349869D01*
X147400246Y-123341839D01*
X147308036Y-123335982D01*
X147193271Y-123332366D01*
X147065426Y-123331060D01*
X146933973Y-123332132D01*
X146808389Y-123335651D01*
X146698148Y-123341684D01*
X146612724Y-123350302D01*
X146610064Y-123350681D01*
X146231652Y-123423537D01*
X145874550Y-123532565D01*
X145524073Y-123682242D01*
X145511574Y-123688339D01*
X145446081Y-123722427D01*
X145413681Y-123749453D01*
X145411659Y-123757203D01*
X145405376Y-123781278D01*
X144616551Y-123781278D01*
X144636664Y-123774090D01*
X144645046Y-123770981D01*
X144659007Y-123757203D01*
X144658173Y-123728279D01*
X144640970Y-123674637D01*
X144605820Y-123586702D01*
X144596702Y-123564350D01*
X144532864Y-123395268D01*
X144471398Y-123212630D01*
X144416654Y-123030762D01*
X144372981Y-122863994D01*
X144344729Y-122726654D01*
X144331368Y-122642560D01*
X144315668Y-122548369D01*
X144300898Y-122488311D01*
X144281749Y-122454604D01*
X144252915Y-122439466D01*
X144209088Y-122435116D01*
X144144959Y-122433770D01*
X144022813Y-122430978D01*
X143929120Y-122432081D01*
X143871947Y-122437830D01*
X143845372Y-122448516D01*
X143091796Y-122448516D01*
X143215787Y-122391370D01*
X143497812Y-122301513D01*
X143787359Y-122245797D01*
X144073768Y-122226614D01*
X144346380Y-122246358D01*
X144449474Y-122263730D01*
X144610452Y-122298823D01*
X144739753Y-122338011D01*
X144831936Y-122379515D01*
X144881560Y-122421553D01*
X144896205Y-122459645D01*
X144917816Y-122537191D01*
X144944021Y-122645216D01*
X144972762Y-122775222D01*
X145001982Y-122918714D01*
X145027774Y-123050163D01*
X145062378Y-123222926D01*
X145090379Y-123356452D01*
X145113007Y-123455649D01*
X145131488Y-123525421D01*
X145147051Y-123570674D01*
X145160923Y-123596315D01*
X145174334Y-123607248D01*
X145197938Y-123603839D01*
X145257289Y-123582576D01*
X145341009Y-123546361D01*
X145439171Y-123499241D01*
X145701641Y-123378480D01*
X146063932Y-123249267D01*
X146433970Y-123161780D01*
X146822393Y-123113048D01*
X146829934Y-123112484D01*
X147229503Y-123103471D01*
X147615306Y-123135261D01*
X147984510Y-123206395D01*
X148334285Y-123315412D01*
X148661799Y-123460851D01*
X148964221Y-123641253D01*
X149238721Y-123855156D01*
X149479732Y-124098341D01*
X149482466Y-124101100D01*
G37*
G36*
X145717723Y-127124179D02*
G01*
X145859630Y-127154384D01*
X145990286Y-127214109D01*
X146099585Y-127303060D01*
X146161150Y-127376571D01*
X146235280Y-127500454D01*
X146264944Y-127614523D01*
X146250188Y-127716591D01*
X146191057Y-127804473D01*
X146087597Y-127875982D01*
X145998586Y-127912522D01*
X145883841Y-127933274D01*
X145756961Y-127924609D01*
X145604814Y-127886824D01*
X145523205Y-127857913D01*
X145422194Y-127803550D01*
X145326199Y-127723185D01*
X145303268Y-127700960D01*
X145249671Y-127644712D01*
X145221134Y-127599396D01*
X145209784Y-127548572D01*
X145207751Y-127475798D01*
X145209363Y-127422391D01*
X145224152Y-127340249D01*
X145258035Y-127278655D01*
X145325570Y-127213612D01*
X145440586Y-127153500D01*
X145574673Y-127123786D01*
X145717723Y-127124179D01*
G37*
G36*
X148062891Y-127558718D02*
G01*
X148064502Y-127558833D01*
X148281542Y-127593812D01*
X148469866Y-127665090D01*
X148627163Y-127771791D01*
X148690426Y-127831676D01*
X148764111Y-127924707D01*
X148799694Y-128014690D01*
X148801553Y-128110118D01*
X148800910Y-128114721D01*
X148770903Y-128211405D01*
X148708036Y-128285918D01*
X148604821Y-128347287D01*
X148584739Y-128355828D01*
X148446129Y-128387126D01*
X148284218Y-128383396D01*
X148107149Y-128344681D01*
X148001986Y-128305500D01*
X147865836Y-128230689D01*
X147756552Y-128141036D01*
X147676363Y-128041857D01*
X147627503Y-127938467D01*
X147612202Y-127836183D01*
X147632692Y-127740321D01*
X147691205Y-127656197D01*
X147789972Y-127589126D01*
X147812860Y-127579012D01*
X147876805Y-127560426D01*
X147954585Y-127554281D01*
X148062891Y-127558718D01*
G37*
%TD*%
M02*
