M48
; DRILL file KiCad 10.0.0-1.fc44 date 2026-08-26T22:39:57
; FORMAT={-:-/ absolute / metric / decimal}
; #@! TF.CreationDate,2026-08-26T22:39:57+01:00
; #@! TF.GenerationSoftware,Kicad,Pcbnew,10.0.0-1.fc44
; #@! TF.FileFunction,Plated,1,2,PTH
FMAT,2
METRIC
; #@! TA.AperFunction,Plated,PTH,ViaDrill
T1C0.300
; #@! TA.AperFunction,Plated,PTH,ComponentDrill
T2C1.100
%
G90
G05
T1
X142.5Y-138.0
X144.755Y-130.5
X147.0Y-133.5
X147.5Y-131.0
X148.5Y-126.5
X148.5Y-133.0
X150.5Y-132.5
X151.2Y-130.579
T2
X142.75Y-100.5
X142.75Y-105.0
X142.75Y-108.0
X142.75Y-112.5
X142.75Y-115.5
X142.75Y-120.0
X149.25Y-100.5
X149.25Y-105.0
X149.25Y-108.0
X149.25Y-112.5
X149.25Y-115.5
X149.25Y-120.0
M30
