ISO-10303-21;
HEADER;
/* Generated by software containing ST-Developer
 * from STEP Tools, Inc. (www.steptools.com) 
 */

FILE_DESCRIPTION(
/* description */ (''),
/* implementation_level */ '2;1');

FILE_NAME(
/* name */ 'snippy case FINAL.step',
/* time_stamp */ '2026-08-27T23:10:21+01:00',
/* author */ (''),
/* organization */ (''),
/* preprocessor_version */ 'ST-DEVELOPER v20.1',
/* originating_system */ 'Autodesk Translation Framework v15.8.0.0',
/* authorisation */ '');

FILE_SCHEMA (('AUTOMOTIVE_DESIGN { 1 0 10303 214 3 1 1 }'));
ENDSEC;

DATA;
#10=MECHANICAL_DESIGN_GEOMETRIC_PRESENTATION_REPRESENTATION('',(#13),#772);
#11=SHAPE_REPRESENTATION_RELATIONSHIP('SRR','None',#779,#12);
#12=ADVANCED_BREP_SHAPE_REPRESENTATION('',(#14),#771);
#13=STYLED_ITEM('',(#788),#14);
#14=MANIFOLD_SOLID_BREP('Body5',#476);
#15=FACE_BOUND('',#85,.T.);
#16=PLANE('',#497);
#17=PLANE('',#498);
#18=PLANE('',#499);
#19=PLANE('',#500);
#20=PLANE('',#501);
#21=PLANE('',#502);
#22=PLANE('',#503);
#23=PLANE('',#504);
#24=PLANE('',#505);
#25=PLANE('',#506);
#26=PLANE('',#507);
#27=PLANE('',#508);
#28=PLANE('',#509);
#29=PLANE('',#510);
#30=PLANE('',#511);
#31=PLANE('',#512);
#32=PLANE('',#513);
#33=PLANE('',#514);
#34=PLANE('',#515);
#35=PLANE('',#516);
#36=PLANE('',#517);
#37=FACE_OUTER_BOUND('',#61,.T.);
#38=FACE_OUTER_BOUND('',#62,.T.);
#39=FACE_OUTER_BOUND('',#63,.T.);
#40=FACE_OUTER_BOUND('',#64,.T.);
#41=FACE_OUTER_BOUND('',#65,.T.);
#42=FACE_OUTER_BOUND('',#66,.T.);
#43=FACE_OUTER_BOUND('',#67,.T.);
#44=FACE_OUTER_BOUND('',#68,.T.);
#45=FACE_OUTER_BOUND('',#69,.T.);
#46=FACE_OUTER_BOUND('',#70,.T.);
#47=FACE_OUTER_BOUND('',#71,.T.);
#48=FACE_OUTER_BOUND('',#72,.T.);
#49=FACE_OUTER_BOUND('',#73,.T.);
#50=FACE_OUTER_BOUND('',#74,.T.);
#51=FACE_OUTER_BOUND('',#75,.T.);
#52=FACE_OUTER_BOUND('',#76,.T.);
#53=FACE_OUTER_BOUND('',#77,.T.);
#54=FACE_OUTER_BOUND('',#78,.T.);
#55=FACE_OUTER_BOUND('',#79,.T.);
#56=FACE_OUTER_BOUND('',#80,.T.);
#57=FACE_OUTER_BOUND('',#81,.T.);
#58=FACE_OUTER_BOUND('',#82,.T.);
#59=FACE_OUTER_BOUND('',#83,.T.);
#60=FACE_OUTER_BOUND('',#84,.T.);
#61=EDGE_LOOP('',(#319,#320,#321,#322));
#62=EDGE_LOOP('',(#323,#324,#325,#326));
#63=EDGE_LOOP('',(#327,#328,#329,#330));
#64=EDGE_LOOP('',(#331,#332,#333,#334,#335,#336,#337,#338));
#65=EDGE_LOOP('',(#339,#340,#341,#342,#343,#344,#345,#346));
#66=EDGE_LOOP('',(#347,#348,#349,#350));
#67=EDGE_LOOP('',(#351,#352,#353,#354));
#68=EDGE_LOOP('',(#355,#356,#357,#358));
#69=EDGE_LOOP('',(#359,#360,#361,#362,#363,#364,#365,#366));
#70=EDGE_LOOP('',(#367,#368,#369,#370));
#71=EDGE_LOOP('',(#371,#372,#373,#374));
#72=EDGE_LOOP('',(#375,#376,#377,#378));
#73=EDGE_LOOP('',(#379,#380,#381,#382));
#74=EDGE_LOOP('',(#383,#384,#385,#386,#387,#388,#389,#390));
#75=EDGE_LOOP('',(#391,#392,#393,#394,#395,#396,#397,#398));
#76=EDGE_LOOP('',(#399,#400,#401,#402));
#77=EDGE_LOOP('',(#403,#404,#405,#406));
#78=EDGE_LOOP('',(#407,#408,#409,#410));
#79=EDGE_LOOP('',(#411,#412,#413,#414));
#80=EDGE_LOOP('',(#415,#416,#417,#418));
#81=EDGE_LOOP('',(#419,#420,#421,#422));
#82=EDGE_LOOP('',(#423,#424,#425,#426));
#83=EDGE_LOOP('',(#427,#428,#429,#430,#431,#432,#433,#434,#435,#436));
#84=EDGE_LOOP('',(#437,#438,#439,#440,#441,#442,#443,#444));
#85=EDGE_LOOP('',(#445,#446,#447,#448));
#86=ELLIPSE('',#492,0.707106781186547,0.5);
#87=ELLIPSE('',#494,0.707106781186541,0.5);
#88=CIRCLE('',#491,0.5);
#89=CIRCLE('',#496,0.5);
#90=LINE('',#641,#151);
#91=LINE('',#645,#152);
#92=LINE('',#649,#153);
#93=LINE('',#651,#154);
#94=LINE('',#655,#155);
#95=LINE('',#658,#156);
#96=LINE('',#661,#157);
#97=LINE('',#663,#158);
#98=LINE('',#665,#159);
#99=LINE('',#667,#160);
#100=LINE('',#669,#161);
#101=LINE('',#671,#162);
#102=LINE('',#672,#163);
#103=LINE('',#675,#164);
#104=LINE('',#677,#165);
#105=LINE('',#679,#166);
#106=LINE('',#680,#167);
#107=LINE('',#683,#168);
#108=LINE('',#685,#169);
#109=LINE('',#686,#170);
#110=LINE('',#688,#171);
#111=LINE('',#691,#172);
#112=LINE('',#692,#173);
#113=LINE('',#695,#174);
#114=LINE('',#697,#175);
#115=LINE('',#699,#176);
#116=LINE('',#700,#177);
#117=LINE('',#703,#178);
#118=LINE('',#705,#179);
#119=LINE('',#706,#180);
#120=LINE('',#709,#181);
#121=LINE('',#711,#182);
#122=LINE('',#712,#183);
#123=LINE('',#714,#184);
#124=LINE('',#717,#185);
#125=LINE('',#718,#186);
#126=LINE('',#721,#187);
#127=LINE('',#723,#188);
#128=LINE('',#725,#189);
#129=LINE('',#727,#190);
#130=LINE('',#728,#191);
#131=LINE('',#731,#192);
#132=LINE('',#733,#193);
#133=LINE('',#734,#194);
#134=LINE('',#736,#195);
#135=LINE('',#739,#196);
#136=LINE('',#741,#197);
#137=LINE('',#742,#198);
#138=LINE('',#745,#199);
#139=LINE('',#747,#200);
#140=LINE('',#748,#201);
#141=LINE('',#752,#202);
#142=LINE('',#754,#203);
#143=LINE('',#756,#204);
#144=LINE('',#757,#205);
#145=LINE('',#759,#206);
#146=LINE('',#760,#207);
#147=LINE('',#762,#208);
#148=LINE('',#763,#209);
#149=LINE('',#765,#210);
#150=LINE('',#766,#211);
#151=VECTOR('',#522,10.);
#152=VECTOR('',#525,10.);
#153=VECTOR('',#530,10.);
#154=VECTOR('',#531,10.);
#155=VECTOR('',#536,10.);
#156=VECTOR('',#539,10.);
#157=VECTOR('',#542,10.);
#158=VECTOR('',#543,10.);
#159=VECTOR('',#544,10.);
#160=VECTOR('',#545,10.);
#161=VECTOR('',#546,10.);
#162=VECTOR('',#547,10.);
#163=VECTOR('',#548,10.);
#164=VECTOR('',#551,10.);
#165=VECTOR('',#552,10.);
#166=VECTOR('',#553,10.);
#167=VECTOR('',#554,10.);
#168=VECTOR('',#557,10.);
#169=VECTOR('',#558,10.);
#170=VECTOR('',#559,10.);
#171=VECTOR('',#562,10.);
#172=VECTOR('',#565,10.);
#173=VECTOR('',#566,10.);
#174=VECTOR('',#569,10.);
#175=VECTOR('',#570,10.);
#176=VECTOR('',#571,10.);
#177=VECTOR('',#572,10.);
#178=VECTOR('',#575,10.);
#179=VECTOR('',#576,10.);
#180=VECTOR('',#577,10.);
#181=VECTOR('',#580,10.);
#182=VECTOR('',#581,10.);
#183=VECTOR('',#582,10.);
#184=VECTOR('',#585,10.);
#185=VECTOR('',#588,10.);
#186=VECTOR('',#589,10.);
#187=VECTOR('',#592,10.);
#188=VECTOR('',#593,10.);
#189=VECTOR('',#594,10.);
#190=VECTOR('',#595,10.);
#191=VECTOR('',#596,10.);
#192=VECTOR('',#599,10.);
#193=VECTOR('',#600,10.);
#194=VECTOR('',#601,10.);
#195=VECTOR('',#604,10.);
#196=VECTOR('',#607,10.);
#197=VECTOR('',#608,10.);
#198=VECTOR('',#609,10.);
#199=VECTOR('',#612,10.);
#200=VECTOR('',#613,10.);
#201=VECTOR('',#614,10.);
#202=VECTOR('',#617,10.);
#203=VECTOR('',#618,10.);
#204=VECTOR('',#619,10.);
#205=VECTOR('',#620,10.);
#206=VECTOR('',#623,10.);
#207=VECTOR('',#624,10.);
#208=VECTOR('',#627,10.);
#209=VECTOR('',#628,10.);
#210=VECTOR('',#631,10.);
#211=VECTOR('',#632,10.);
#212=VERTEX_POINT('',#639);
#213=VERTEX_POINT('',#640);
#214=VERTEX_POINT('',#642);
#215=VERTEX_POINT('',#644);
#216=VERTEX_POINT('',#648);
#217=VERTEX_POINT('',#650);
#218=VERTEX_POINT('',#654);
#219=VERTEX_POINT('',#656);
#220=VERTEX_POINT('',#660);
#221=VERTEX_POINT('',#662);
#222=VERTEX_POINT('',#664);
#223=VERTEX_POINT('',#666);
#224=VERTEX_POINT('',#668);
#225=VERTEX_POINT('',#670);
#226=VERTEX_POINT('',#674);
#227=VERTEX_POINT('',#676);
#228=VERTEX_POINT('',#678);
#229=VERTEX_POINT('',#682);
#230=VERTEX_POINT('',#684);
#231=VERTEX_POINT('',#690);
#232=VERTEX_POINT('',#694);
#233=VERTEX_POINT('',#696);
#234=VERTEX_POINT('',#698);
#235=VERTEX_POINT('',#702);
#236=VERTEX_POINT('',#704);
#237=VERTEX_POINT('',#708);
#238=VERTEX_POINT('',#710);
#239=VERTEX_POINT('',#716);
#240=VERTEX_POINT('',#720);
#241=VERTEX_POINT('',#722);
#242=VERTEX_POINT('',#724);
#243=VERTEX_POINT('',#726);
#244=VERTEX_POINT('',#730);
#245=VERTEX_POINT('',#732);
#246=VERTEX_POINT('',#738);
#247=VERTEX_POINT('',#740);
#248=VERTEX_POINT('',#744);
#249=VERTEX_POINT('',#746);
#250=VERTEX_POINT('',#750);
#251=VERTEX_POINT('',#751);
#252=VERTEX_POINT('',#753);
#253=VERTEX_POINT('',#755);
#254=EDGE_CURVE('',#212,#213,#90,.T.);
#255=EDGE_CURVE('',#213,#214,#88,.T.);
#256=EDGE_CURVE('',#214,#215,#91,.T.);
#257=EDGE_CURVE('',#215,#212,#86,.T.);
#258=EDGE_CURVE('',#216,#212,#92,.T.);
#259=EDGE_CURVE('',#215,#217,#93,.T.);
#260=EDGE_CURVE('',#217,#216,#87,.T.);
#261=EDGE_CURVE('',#217,#218,#94,.T.);
#262=EDGE_CURVE('',#218,#219,#89,.T.);
#263=EDGE_CURVE('',#219,#216,#95,.T.);
#264=EDGE_CURVE('',#218,#220,#96,.T.);
#265=EDGE_CURVE('',#220,#221,#97,.T.);
#266=EDGE_CURVE('',#222,#221,#98,.T.);
#267=EDGE_CURVE('',#223,#222,#99,.T.);
#268=EDGE_CURVE('',#224,#223,#100,.T.);
#269=EDGE_CURVE('',#224,#225,#101,.T.);
#270=EDGE_CURVE('',#225,#219,#102,.T.);
#271=EDGE_CURVE('',#214,#226,#103,.T.);
#272=EDGE_CURVE('',#226,#227,#104,.T.);
#273=EDGE_CURVE('',#227,#228,#105,.T.);
#274=EDGE_CURVE('',#228,#220,#106,.T.);
#275=EDGE_CURVE('',#227,#229,#107,.T.);
#276=EDGE_CURVE('',#230,#229,#108,.T.);
#277=EDGE_CURVE('',#228,#230,#109,.T.);
#278=EDGE_CURVE('',#221,#230,#110,.T.);
#279=EDGE_CURVE('',#226,#231,#111,.T.);
#280=EDGE_CURVE('',#229,#231,#112,.T.);
#281=EDGE_CURVE('',#231,#232,#113,.T.);
#282=EDGE_CURVE('',#233,#232,#114,.T.);
#283=EDGE_CURVE('',#234,#233,#115,.T.);
#284=EDGE_CURVE('',#222,#234,#116,.T.);
#285=EDGE_CURVE('',#235,#232,#117,.T.);
#286=EDGE_CURVE('',#236,#235,#118,.T.);
#287=EDGE_CURVE('',#236,#233,#119,.T.);
#288=EDGE_CURVE('',#237,#216,#120,.T.);
#289=EDGE_CURVE('',#238,#237,#121,.T.);
#290=EDGE_CURVE('',#238,#212,#122,.T.);
#291=EDGE_CURVE('',#237,#225,#123,.T.);
#292=EDGE_CURVE('',#239,#234,#124,.T.);
#293=EDGE_CURVE('',#223,#239,#125,.T.);
#294=EDGE_CURVE('',#240,#236,#126,.T.);
#295=EDGE_CURVE('',#241,#240,#127,.T.);
#296=EDGE_CURVE('',#241,#242,#128,.T.);
#297=EDGE_CURVE('',#242,#243,#129,.T.);
#298=EDGE_CURVE('',#239,#243,#130,.T.);
#299=EDGE_CURVE('',#244,#213,#131,.T.);
#300=EDGE_CURVE('',#244,#245,#132,.T.);
#301=EDGE_CURVE('',#235,#245,#133,.T.);
#302=EDGE_CURVE('',#244,#238,#134,.T.);
#303=EDGE_CURVE('',#246,#223,#135,.T.);
#304=EDGE_CURVE('',#247,#246,#136,.T.);
#305=EDGE_CURVE('',#247,#224,#137,.T.);
#306=EDGE_CURVE('',#248,#245,#138,.T.);
#307=EDGE_CURVE('',#248,#249,#139,.T.);
#308=EDGE_CURVE('',#235,#249,#140,.T.);
#309=EDGE_CURVE('',#250,#251,#141,.T.);
#310=EDGE_CURVE('',#251,#252,#142,.T.);
#311=EDGE_CURVE('',#253,#252,#143,.T.);
#312=EDGE_CURVE('',#250,#253,#144,.T.);
#313=EDGE_CURVE('',#242,#250,#145,.T.);
#314=EDGE_CURVE('',#243,#253,#146,.T.);
#315=EDGE_CURVE('',#251,#241,#147,.T.);
#316=EDGE_CURVE('',#252,#240,#148,.T.);
#317=EDGE_CURVE('',#247,#248,#149,.T.);
#318=EDGE_CURVE('',#249,#246,#150,.T.);
#319=ORIENTED_EDGE('',*,*,#254,.T.);
#320=ORIENTED_EDGE('',*,*,#255,.T.);
#321=ORIENTED_EDGE('',*,*,#256,.T.);
#322=ORIENTED_EDGE('',*,*,#257,.T.);
#323=ORIENTED_EDGE('',*,*,#258,.T.);
#324=ORIENTED_EDGE('',*,*,#257,.F.);
#325=ORIENTED_EDGE('',*,*,#259,.T.);
#326=ORIENTED_EDGE('',*,*,#260,.T.);
#327=ORIENTED_EDGE('',*,*,#261,.T.);
#328=ORIENTED_EDGE('',*,*,#262,.T.);
#329=ORIENTED_EDGE('',*,*,#263,.T.);
#330=ORIENTED_EDGE('',*,*,#260,.F.);
#331=ORIENTED_EDGE('',*,*,#262,.F.);
#332=ORIENTED_EDGE('',*,*,#264,.T.);
#333=ORIENTED_EDGE('',*,*,#265,.T.);
#334=ORIENTED_EDGE('',*,*,#266,.F.);
#335=ORIENTED_EDGE('',*,*,#267,.F.);
#336=ORIENTED_EDGE('',*,*,#268,.F.);
#337=ORIENTED_EDGE('',*,*,#269,.T.);
#338=ORIENTED_EDGE('',*,*,#270,.T.);
#339=ORIENTED_EDGE('',*,*,#261,.F.);
#340=ORIENTED_EDGE('',*,*,#259,.F.);
#341=ORIENTED_EDGE('',*,*,#256,.F.);
#342=ORIENTED_EDGE('',*,*,#271,.T.);
#343=ORIENTED_EDGE('',*,*,#272,.T.);
#344=ORIENTED_EDGE('',*,*,#273,.T.);
#345=ORIENTED_EDGE('',*,*,#274,.T.);
#346=ORIENTED_EDGE('',*,*,#264,.F.);
#347=ORIENTED_EDGE('',*,*,#273,.F.);
#348=ORIENTED_EDGE('',*,*,#275,.T.);
#349=ORIENTED_EDGE('',*,*,#276,.F.);
#350=ORIENTED_EDGE('',*,*,#277,.F.);
#351=ORIENTED_EDGE('',*,*,#274,.F.);
#352=ORIENTED_EDGE('',*,*,#277,.T.);
#353=ORIENTED_EDGE('',*,*,#278,.F.);
#354=ORIENTED_EDGE('',*,*,#265,.F.);
#355=ORIENTED_EDGE('',*,*,#272,.F.);
#356=ORIENTED_EDGE('',*,*,#279,.T.);
#357=ORIENTED_EDGE('',*,*,#280,.F.);
#358=ORIENTED_EDGE('',*,*,#275,.F.);
#359=ORIENTED_EDGE('',*,*,#280,.T.);
#360=ORIENTED_EDGE('',*,*,#281,.T.);
#361=ORIENTED_EDGE('',*,*,#282,.F.);
#362=ORIENTED_EDGE('',*,*,#283,.F.);
#363=ORIENTED_EDGE('',*,*,#284,.F.);
#364=ORIENTED_EDGE('',*,*,#266,.T.);
#365=ORIENTED_EDGE('',*,*,#278,.T.);
#366=ORIENTED_EDGE('',*,*,#276,.T.);
#367=ORIENTED_EDGE('',*,*,#282,.T.);
#368=ORIENTED_EDGE('',*,*,#285,.F.);
#369=ORIENTED_EDGE('',*,*,#286,.F.);
#370=ORIENTED_EDGE('',*,*,#287,.T.);
#371=ORIENTED_EDGE('',*,*,#258,.F.);
#372=ORIENTED_EDGE('',*,*,#288,.F.);
#373=ORIENTED_EDGE('',*,*,#289,.F.);
#374=ORIENTED_EDGE('',*,*,#290,.T.);
#375=ORIENTED_EDGE('',*,*,#263,.F.);
#376=ORIENTED_EDGE('',*,*,#270,.F.);
#377=ORIENTED_EDGE('',*,*,#291,.F.);
#378=ORIENTED_EDGE('',*,*,#288,.T.);
#379=ORIENTED_EDGE('',*,*,#284,.T.);
#380=ORIENTED_EDGE('',*,*,#292,.F.);
#381=ORIENTED_EDGE('',*,*,#293,.F.);
#382=ORIENTED_EDGE('',*,*,#267,.T.);
#383=ORIENTED_EDGE('',*,*,#283,.T.);
#384=ORIENTED_EDGE('',*,*,#287,.F.);
#385=ORIENTED_EDGE('',*,*,#294,.F.);
#386=ORIENTED_EDGE('',*,*,#295,.F.);
#387=ORIENTED_EDGE('',*,*,#296,.T.);
#388=ORIENTED_EDGE('',*,*,#297,.T.);
#389=ORIENTED_EDGE('',*,*,#298,.F.);
#390=ORIENTED_EDGE('',*,*,#292,.T.);
#391=ORIENTED_EDGE('',*,*,#255,.F.);
#392=ORIENTED_EDGE('',*,*,#299,.F.);
#393=ORIENTED_EDGE('',*,*,#300,.T.);
#394=ORIENTED_EDGE('',*,*,#301,.F.);
#395=ORIENTED_EDGE('',*,*,#285,.T.);
#396=ORIENTED_EDGE('',*,*,#281,.F.);
#397=ORIENTED_EDGE('',*,*,#279,.F.);
#398=ORIENTED_EDGE('',*,*,#271,.F.);
#399=ORIENTED_EDGE('',*,*,#254,.F.);
#400=ORIENTED_EDGE('',*,*,#290,.F.);
#401=ORIENTED_EDGE('',*,*,#302,.F.);
#402=ORIENTED_EDGE('',*,*,#299,.T.);
#403=ORIENTED_EDGE('',*,*,#268,.T.);
#404=ORIENTED_EDGE('',*,*,#303,.F.);
#405=ORIENTED_EDGE('',*,*,#304,.F.);
#406=ORIENTED_EDGE('',*,*,#305,.T.);
#407=ORIENTED_EDGE('',*,*,#301,.T.);
#408=ORIENTED_EDGE('',*,*,#306,.F.);
#409=ORIENTED_EDGE('',*,*,#307,.T.);
#410=ORIENTED_EDGE('',*,*,#308,.F.);
#411=ORIENTED_EDGE('',*,*,#309,.T.);
#412=ORIENTED_EDGE('',*,*,#310,.T.);
#413=ORIENTED_EDGE('',*,*,#311,.F.);
#414=ORIENTED_EDGE('',*,*,#312,.F.);
#415=ORIENTED_EDGE('',*,*,#313,.T.);
#416=ORIENTED_EDGE('',*,*,#312,.T.);
#417=ORIENTED_EDGE('',*,*,#314,.F.);
#418=ORIENTED_EDGE('',*,*,#297,.F.);
#419=ORIENTED_EDGE('',*,*,#315,.T.);
#420=ORIENTED_EDGE('',*,*,#295,.T.);
#421=ORIENTED_EDGE('',*,*,#316,.F.);
#422=ORIENTED_EDGE('',*,*,#310,.F.);
#423=ORIENTED_EDGE('',*,*,#317,.F.);
#424=ORIENTED_EDGE('',*,*,#304,.T.);
#425=ORIENTED_EDGE('',*,*,#318,.F.);
#426=ORIENTED_EDGE('',*,*,#307,.F.);
#427=ORIENTED_EDGE('',*,*,#298,.T.);
#428=ORIENTED_EDGE('',*,*,#314,.T.);
#429=ORIENTED_EDGE('',*,*,#311,.T.);
#430=ORIENTED_EDGE('',*,*,#316,.T.);
#431=ORIENTED_EDGE('',*,*,#294,.T.);
#432=ORIENTED_EDGE('',*,*,#286,.T.);
#433=ORIENTED_EDGE('',*,*,#308,.T.);
#434=ORIENTED_EDGE('',*,*,#318,.T.);
#435=ORIENTED_EDGE('',*,*,#303,.T.);
#436=ORIENTED_EDGE('',*,*,#293,.T.);
#437=ORIENTED_EDGE('',*,*,#305,.F.);
#438=ORIENTED_EDGE('',*,*,#317,.T.);
#439=ORIENTED_EDGE('',*,*,#306,.T.);
#440=ORIENTED_EDGE('',*,*,#300,.F.);
#441=ORIENTED_EDGE('',*,*,#302,.T.);
#442=ORIENTED_EDGE('',*,*,#289,.T.);
#443=ORIENTED_EDGE('',*,*,#291,.T.);
#444=ORIENTED_EDGE('',*,*,#269,.F.);
#445=ORIENTED_EDGE('',*,*,#296,.F.);
#446=ORIENTED_EDGE('',*,*,#315,.F.);
#447=ORIENTED_EDGE('',*,*,#309,.F.);
#448=ORIENTED_EDGE('',*,*,#313,.F.);
#449=CYLINDRICAL_SURFACE('',#490,0.5);
#450=CYLINDRICAL_SURFACE('',#493,0.5);
#451=CYLINDRICAL_SURFACE('',#495,0.5);
#452=ADVANCED_FACE('',(#37),#449,.T.);
#453=ADVANCED_FACE('',(#38),#450,.T.);
#454=ADVANCED_FACE('',(#39),#451,.T.);
#455=ADVANCED_FACE('',(#40),#16,.T.);
#456=ADVANCED_FACE('',(#41),#17,.T.);
#457=ADVANCED_FACE('',(#42),#18,.T.);
#458=ADVANCED_FACE('',(#43),#19,.T.);
#459=ADVANCED_FACE('',(#44),#20,.T.);
#460=ADVANCED_FACE('',(#45),#21,.T.);
#461=ADVANCED_FACE('',(#46),#22,.T.);
#462=ADVANCED_FACE('',(#47),#23,.T.);
#463=ADVANCED_FACE('',(#48),#24,.T.);
#464=ADVANCED_FACE('',(#49),#25,.T.);
#465=ADVANCED_FACE('',(#50),#26,.T.);
#466=ADVANCED_FACE('',(#51),#27,.T.);
#467=ADVANCED_FACE('',(#52),#28,.T.);
#468=ADVANCED_FACE('',(#53),#29,.T.);
#469=ADVANCED_FACE('',(#54),#30,.T.);
#470=ADVANCED_FACE('',(#55),#31,.T.);
#471=ADVANCED_FACE('',(#56),#32,.T.);
#472=ADVANCED_FACE('',(#57),#33,.T.);
#473=ADVANCED_FACE('',(#58),#34,.T.);
#474=ADVANCED_FACE('',(#59),#35,.T.);
#475=ADVANCED_FACE('',(#60,#15),#36,.F.);
#476=CLOSED_SHELL('',(#452,#453,#454,#455,#456,#457,#458,#459,#460,#461,
#462,#463,#464,#465,#466,#467,#468,#469,#470,#471,#472,#473,#474,#475));
#477=DERIVED_UNIT_ELEMENT(#479,1.);
#478=DERIVED_UNIT_ELEMENT(#774,-3.);
#479=(
MASS_UNIT()
NAMED_UNIT(*)
SI_UNIT(.KILO.,.GRAM.)
);
#480=DERIVED_UNIT((#477,#478));
#481=MEASURE_REPRESENTATION_ITEM('density measure',
POSITIVE_RATIO_MEASURE(7850.),#480);
#482=PROPERTY_DEFINITION_REPRESENTATION(#487,#484);
#483=PROPERTY_DEFINITION_REPRESENTATION(#488,#485);
#484=REPRESENTATION('material name',(#486),#771);
#485=REPRESENTATION('density',(#481),#771);
#486=DESCRIPTIVE_REPRESENTATION_ITEM('Steel','Steel');
#487=PROPERTY_DEFINITION('material property','material name',#781);
#488=PROPERTY_DEFINITION('material property','density of part',#781);
#489=AXIS2_PLACEMENT_3D('',#637,#518,#519);
#490=AXIS2_PLACEMENT_3D('',#638,#520,#521);
#491=AXIS2_PLACEMENT_3D('',#643,#523,#524);
#492=AXIS2_PLACEMENT_3D('',#646,#526,#527);
#493=AXIS2_PLACEMENT_3D('',#647,#528,#529);
#494=AXIS2_PLACEMENT_3D('',#652,#532,#533);
#495=AXIS2_PLACEMENT_3D('',#653,#534,#535);
#496=AXIS2_PLACEMENT_3D('',#657,#537,#538);
#497=AXIS2_PLACEMENT_3D('',#659,#540,#541);
#498=AXIS2_PLACEMENT_3D('',#673,#549,#550);
#499=AXIS2_PLACEMENT_3D('',#681,#555,#556);
#500=AXIS2_PLACEMENT_3D('',#687,#560,#561);
#501=AXIS2_PLACEMENT_3D('',#689,#563,#564);
#502=AXIS2_PLACEMENT_3D('',#693,#567,#568);
#503=AXIS2_PLACEMENT_3D('',#701,#573,#574);
#504=AXIS2_PLACEMENT_3D('',#707,#578,#579);
#505=AXIS2_PLACEMENT_3D('',#713,#583,#584);
#506=AXIS2_PLACEMENT_3D('',#715,#586,#587);
#507=AXIS2_PLACEMENT_3D('',#719,#590,#591);
#508=AXIS2_PLACEMENT_3D('',#729,#597,#598);
#509=AXIS2_PLACEMENT_3D('',#735,#602,#603);
#510=AXIS2_PLACEMENT_3D('',#737,#605,#606);
#511=AXIS2_PLACEMENT_3D('',#743,#610,#611);
#512=AXIS2_PLACEMENT_3D('',#749,#615,#616);
#513=AXIS2_PLACEMENT_3D('',#758,#621,#622);
#514=AXIS2_PLACEMENT_3D('',#761,#625,#626);
#515=AXIS2_PLACEMENT_3D('',#764,#629,#630);
#516=AXIS2_PLACEMENT_3D('',#767,#633,#634);
#517=AXIS2_PLACEMENT_3D('',#768,#635,#636);
#518=DIRECTION('axis',(0.,0.,1.));
#519=DIRECTION('refdir',(1.,0.,0.));
#520=DIRECTION('center_axis',(1.13143749278877E-15,0.,-1.));
#521=DIRECTION('ref_axis',(0.707106781186553,0.707106781186542,0.));
#522=DIRECTION('',(1.13143749278877E-15,0.,-1.));
#523=DIRECTION('center_axis',(0.,0.,1.));
#524=DIRECTION('ref_axis',(0.707106781186553,0.707106781186542,0.));
#525=DIRECTION('',(-1.13143749278877E-15,0.,1.));
#526=DIRECTION('center_axis',(0.707106781186548,0.,-0.707106781186548));
#527=DIRECTION('ref_axis',(0.707106781186548,0.,0.707106781186548));
#528=DIRECTION('center_axis',(1.,0.,0.));
#529=DIRECTION('ref_axis',(0.,0.707106781186517,0.707106781186578));
#530=DIRECTION('',(1.,0.,0.));
#531=DIRECTION('',(-1.,0.,0.));
#532=DIRECTION('center_axis',(0.707106781186554,0.,0.707106781186541));
#533=DIRECTION('ref_axis',(-0.707106781186541,0.,0.707106781186554));
#534=DIRECTION('center_axis',(0.,0.,1.));
#535=DIRECTION('ref_axis',(-0.707106781186553,0.707106781186542,0.));
#536=DIRECTION('',(0.,0.,-1.));
#537=DIRECTION('center_axis',(0.,0.,1.));
#538=DIRECTION('ref_axis',(-0.707106781186553,0.707106781186542,0.));
#539=DIRECTION('',(0.,0.,1.));
#540=DIRECTION('center_axis',(0.,0.,-1.));
#541=DIRECTION('ref_axis',(-1.,0.,0.));
#542=DIRECTION('',(1.,0.,0.));
#543=DIRECTION('',(0.,-1.,0.));
#544=DIRECTION('',(1.,0.,0.));
#545=DIRECTION('',(0.,1.,0.));
#546=DIRECTION('',(0.,1.,0.));
#547=DIRECTION('',(-1.,0.,0.));
#548=DIRECTION('',(0.,1.,0.));
#549=DIRECTION('center_axis',(0.,1.,0.));
#550=DIRECTION('ref_axis',(0.,0.,1.));
#551=DIRECTION('',(-1.,0.,0.));
#552=DIRECTION('',(0.,0.,1.));
#553=DIRECTION('',(-1.,0.,0.));
#554=DIRECTION('',(0.,0.,-1.));
#555=DIRECTION('center_axis',(0.,0.,-1.));
#556=DIRECTION('ref_axis',(1.,0.,0.));
#557=DIRECTION('',(0.,-1.,0.));
#558=DIRECTION('',(1.,0.,0.));
#559=DIRECTION('',(0.,-1.,0.));
#560=DIRECTION('center_axis',(1.,0.,0.));
#561=DIRECTION('ref_axis',(0.,0.,1.));
#562=DIRECTION('',(0.,0.,1.));
#563=DIRECTION('center_axis',(-1.,0.,0.));
#564=DIRECTION('ref_axis',(0.,0.,-1.));
#565=DIRECTION('',(0.,-1.,0.));
#566=DIRECTION('',(0.,0.,-1.));
#567=DIRECTION('center_axis',(0.,-1.,0.));
#568=DIRECTION('ref_axis',(0.,0.,-1.));
#569=DIRECTION('',(1.,0.,0.));
#570=DIRECTION('',(4.59006935245543E-16,0.,-1.));
#571=DIRECTION('',(1.,0.,0.));
#572=DIRECTION('',(0.,0.,1.));
#573=DIRECTION('center_axis',(-1.,0.,-4.59006935245543E-16));
#574=DIRECTION('ref_axis',(-4.59006935245543E-16,0.,1.));
#575=DIRECTION('',(0.,1.,0.));
#576=DIRECTION('',(4.59006935245543E-16,0.,-1.));
#577=DIRECTION('',(0.,1.,0.));
#578=DIRECTION('center_axis',(0.,0.,1.));
#579=DIRECTION('ref_axis',(1.,0.,0.));
#580=DIRECTION('',(0.,1.,0.));
#581=DIRECTION('',(-1.,0.,0.));
#582=DIRECTION('',(0.,1.,0.));
#583=DIRECTION('center_axis',(-1.,0.,0.));
#584=DIRECTION('ref_axis',(0.,0.,1.));
#585=DIRECTION('',(0.,0.,-1.));
#586=DIRECTION('center_axis',(1.,0.,0.));
#587=DIRECTION('ref_axis',(0.,0.,-1.));
#588=DIRECTION('',(0.,1.,0.));
#589=DIRECTION('',(0.,0.,1.));
#590=DIRECTION('center_axis',(0.,0.,-1.));
#591=DIRECTION('ref_axis',(-1.,0.,0.));
#592=DIRECTION('',(1.,0.,0.));
#593=DIRECTION('',(0.,1.,0.));
#594=DIRECTION('',(-1.,0.,0.));
#595=DIRECTION('',(0.,1.,0.));
#596=DIRECTION('',(1.,0.,0.));
#597=DIRECTION('center_axis',(0.,0.,-1.));
#598=DIRECTION('ref_axis',(-1.,0.,0.));
#599=DIRECTION('',(0.,1.,0.));
#600=DIRECTION('',(-1.,0.,0.));
#601=DIRECTION('',(0.,-1.,0.));
#602=DIRECTION('center_axis',(1.,0.,1.13143749278877E-15));
#603=DIRECTION('ref_axis',(1.13143749278877E-15,0.,-1.));
#604=DIRECTION('',(-1.13143749278877E-15,0.,1.));
#605=DIRECTION('center_axis',(-1.,0.,0.));
#606=DIRECTION('ref_axis',(0.,0.,1.));
#607=DIRECTION('',(0.,0.,1.));
#608=DIRECTION('',(0.,1.,0.));
#609=DIRECTION('',(0.,0.,1.));
#610=DIRECTION('center_axis',(1.,0.,0.));
#611=DIRECTION('ref_axis',(0.,0.,-1.));
#612=DIRECTION('',(-4.59006935245543E-16,0.,1.));
#613=DIRECTION('',(0.,1.,0.));
#614=DIRECTION('',(4.59006935245543E-16,0.,-1.));
#615=DIRECTION('center_axis',(0.,0.,1.));
#616=DIRECTION('ref_axis',(1.,0.,0.));
#617=DIRECTION('',(1.,0.,0.));
#618=DIRECTION('',(0.,1.,0.));
#619=DIRECTION('',(1.,0.,0.));
#620=DIRECTION('',(0.,1.,0.));
#621=DIRECTION('center_axis',(1.,0.,0.));
#622=DIRECTION('ref_axis',(0.,0.,-1.));
#623=DIRECTION('',(0.,0.,-1.));
#624=DIRECTION('',(0.,0.,-1.));
#625=DIRECTION('center_axis',(-1.,0.,0.));
#626=DIRECTION('ref_axis',(0.,0.,1.));
#627=DIRECTION('',(0.,0.,1.));
#628=DIRECTION('',(0.,0.,1.));
#629=DIRECTION('center_axis',(0.,0.,-1.));
#630=DIRECTION('ref_axis',(-1.,0.,0.));
#631=DIRECTION('',(1.,0.,0.));
#632=DIRECTION('',(-1.,0.,0.));
#633=DIRECTION('center_axis',(0.,1.,0.));
#634=DIRECTION('ref_axis',(0.,0.,1.));
#635=DIRECTION('center_axis',(0.,1.,0.));
#636=DIRECTION('ref_axis',(1.,0.,0.));
#637=CARTESIAN_POINT('',(0.,0.,0.));
#638=CARTESIAN_POINT('Origin',(87.100001259148,2.1,193.775001999735));
#639=CARTESIAN_POINT('',(87.600001259148,2.1,197.700001946091));
#640=CARTESIAN_POINT('',(87.600001259148,2.1,182.000002160668));
#641=CARTESIAN_POINT('',(87.600001259148,2.1,193.775001999735));
#642=CARTESIAN_POINT('',(87.100001259148,2.6,182.000002160668));
#643=CARTESIAN_POINT('Origin',(87.100001259148,2.1,182.000002160668));
#644=CARTESIAN_POINT('',(87.100001259148,2.6,197.200001946091));
#645=CARTESIAN_POINT('',(87.100001259148,2.6,193.775001999735));
#646=CARTESIAN_POINT('Origin',(87.100001259148,2.1,197.200001946091));
#647=CARTESIAN_POINT('Origin',(75.450001259148,2.1,197.200001946091));
#648=CARTESIAN_POINT('',(71.400001259148,2.1,197.700001946091));
#649=CARTESIAN_POINT('',(75.450001259148,2.1,197.700001946091));
#650=CARTESIAN_POINT('',(71.900001259148,2.6,197.200001946091));
#651=CARTESIAN_POINT('',(75.450001259148,2.6,197.200001946091));
#652=CARTESIAN_POINT('Origin',(71.900001259148,2.1,197.200001946091));
#653=CARTESIAN_POINT('Origin',(71.900001259148,2.1,185.925002107024));
#654=CARTESIAN_POINT('',(71.900001259148,2.6,182.000002160668));
#655=CARTESIAN_POINT('',(71.900001259148,2.6,185.925002107024));
#656=CARTESIAN_POINT('',(71.400001259148,2.1,182.000002160668));
#657=CARTESIAN_POINT('Origin',(71.900001259148,2.1,182.000002160668));
#658=CARTESIAN_POINT('',(71.400001259148,2.1,185.925002107024));
#659=CARTESIAN_POINT('Origin',(73.400001259148,0.,182.000002160668));
#660=CARTESIAN_POINT('',(73.900001259148,2.6,182.000002160668));
#661=CARTESIAN_POINT('',(73.400001259148,2.6,182.000002160668));
#662=CARTESIAN_POINT('',(73.900001259148,2.2,182.000002160668));
#663=CARTESIAN_POINT('',(73.900001259148,2.6,182.000002160668));
#664=CARTESIAN_POINT('',(73.400001259148,2.2,182.000002160668));
#665=CARTESIAN_POINT('',(73.400001259148,2.2,182.000002160668));
#666=CARTESIAN_POINT('',(73.400001259148,0.4,182.000002160668));
#667=CARTESIAN_POINT('',(73.400001259148,0.,182.000002160668));
#668=CARTESIAN_POINT('',(73.400001259148,0.,182.000002160668));
#669=CARTESIAN_POINT('',(73.400001259148,0.,182.000002160668));
#670=CARTESIAN_POINT('',(71.400001259148,0.,182.000002160668));
#671=CARTESIAN_POINT('',(87.600001259148,0.,182.000002160668));
#672=CARTESIAN_POINT('',(71.400001259148,0.,182.000002160668));
#673=CARTESIAN_POINT('Origin',(79.500001259148,2.6,189.850002053379));
#674=CARTESIAN_POINT('',(85.100001259148,2.6,182.000002160668));
#675=CARTESIAN_POINT('',(87.600001259148,2.6,182.000002160668));
#676=CARTESIAN_POINT('',(85.100001259148,2.6,195.200001946091));
#677=CARTESIAN_POINT('',(85.100001259148,2.6,182.000002160668));
#678=CARTESIAN_POINT('',(73.900001259148,2.6,195.200001946091));
#679=CARTESIAN_POINT('',(85.100001259148,2.6,195.200001946091));
#680=CARTESIAN_POINT('',(73.900001259148,2.6,195.200001946091));
#681=CARTESIAN_POINT('Origin',(73.900001259148,2.6,195.200001946091));
#682=CARTESIAN_POINT('',(85.100001259148,2.2,195.200001946091));
#683=CARTESIAN_POINT('',(85.100001259148,2.6,195.200001946091));
#684=CARTESIAN_POINT('',(73.900001259148,2.2,195.200001946091));
#685=CARTESIAN_POINT('',(85.100001259148,2.2,195.200001946091));
#686=CARTESIAN_POINT('',(73.900001259148,2.6,195.200001946091));
#687=CARTESIAN_POINT('Origin',(73.900001259148,2.6,182.000002160668));
#688=CARTESIAN_POINT('',(73.900001259148,2.2,195.200001946091));
#689=CARTESIAN_POINT('Origin',(85.100001259148,2.6,195.200001946091));
#690=CARTESIAN_POINT('',(85.100001259148,2.2,182.000002160668));
#691=CARTESIAN_POINT('',(85.100001259148,2.6,182.000002160668));
#692=CARTESIAN_POINT('',(85.100001259148,2.2,182.000002160668));
#693=CARTESIAN_POINT('Origin',(79.500001259148,2.2,188.850002053379));
#694=CARTESIAN_POINT('',(85.600001259148,2.2,182.000002160668));
#695=CARTESIAN_POINT('',(85.100001259148,2.2,182.000002160668));
#696=CARTESIAN_POINT('',(85.600001259148,2.2,195.700001946091));
#697=CARTESIAN_POINT('',(85.600001259148,2.2,185.425002107024));
#698=CARTESIAN_POINT('',(73.400001259148,2.2,195.700001946091));
#699=CARTESIAN_POINT('',(82.550001259148,2.2,195.700001946091));
#700=CARTESIAN_POINT('',(73.400001259148,2.2,192.275001999735));
#701=CARTESIAN_POINT('Origin',(85.600001259148,0.,182.000002160668));
#702=CARTESIAN_POINT('',(85.600001259148,0.4,182.000002160668));
#703=CARTESIAN_POINT('',(85.600001259148,0.,182.000002160668));
#704=CARTESIAN_POINT('',(85.600001259148,0.4,195.700001946091));
#705=CARTESIAN_POINT('',(85.600001259148,0.4,176.675002151727));
#706=CARTESIAN_POINT('',(85.600001259148,0.,195.700001946091));
#707=CARTESIAN_POINT('Origin',(71.400001259148,0.,197.700001946091));
#708=CARTESIAN_POINT('',(71.400001259148,0.,197.700001946091));
#709=CARTESIAN_POINT('',(71.400001259148,0.,197.700001946091));
#710=CARTESIAN_POINT('',(87.600001259148,0.,197.700001946091));
#711=CARTESIAN_POINT('',(87.600001259148,0.,197.700001946091));
#712=CARTESIAN_POINT('',(87.600001259148,0.,197.700001946091));
#713=CARTESIAN_POINT('Origin',(71.400001259148,0.,182.000002160668));
#714=CARTESIAN_POINT('',(71.400001259148,0.,197.700001946091));
#715=CARTESIAN_POINT('Origin',(73.400001259148,0.,195.700001946091));
#716=CARTESIAN_POINT('',(73.400001259148,0.4,195.700001946091));
#717=CARTESIAN_POINT('',(73.400001259148,0.,195.700001946091));
#718=CARTESIAN_POINT('',(73.400001259148,0.4,145.000002339482));
#719=CARTESIAN_POINT('Origin',(85.600001259148,0.,195.700001946091));
#720=CARTESIAN_POINT('',(84.5000012591481,0.4,195.700001946091));
#721=CARTESIAN_POINT('',(82.550001259148,0.4,195.700001946091));
#722=CARTESIAN_POINT('',(84.5000012591481,0.,195.700001946091));
#723=CARTESIAN_POINT('',(84.5000012591481,0.,195.700001946091));
#724=CARTESIAN_POINT('',(74.5000012591481,0.,195.700001946091));
#725=CARTESIAN_POINT('',(85.600001259148,0.,195.700001946091));
#726=CARTESIAN_POINT('',(74.5000012591481,0.4,195.700001946091));
#727=CARTESIAN_POINT('',(74.5000012591481,0.,195.700001946091));
#728=CARTESIAN_POINT('',(82.550001259148,0.4,195.700001946091));
#729=CARTESIAN_POINT('Origin',(87.600001259148,0.,182.000002160668));
#730=CARTESIAN_POINT('',(87.600001259148,0.,182.000002160668));
#731=CARTESIAN_POINT('',(87.600001259148,0.,182.000002160668));
#732=CARTESIAN_POINT('',(85.600001259148,0.,182.000002160668));
#733=CARTESIAN_POINT('',(87.600001259148,0.,182.000002160668));
#734=CARTESIAN_POINT('',(85.600001259148,0.,182.000002160668));
#735=CARTESIAN_POINT('Origin',(87.600001259148,0.,197.700001946091));
#736=CARTESIAN_POINT('',(87.600001259148,0.,182.000002160668));
#737=CARTESIAN_POINT('Origin',(73.400001259148,0.,145.000002339482));
#738=CARTESIAN_POINT('',(73.400001259148,0.4,145.000002339482));
#739=CARTESIAN_POINT('',(73.400001259148,0.4,145.000002339482));
#740=CARTESIAN_POINT('',(73.400001259148,0.,145.000002339482));
#741=CARTESIAN_POINT('',(73.400001259148,0.,145.000002339482));
#742=CARTESIAN_POINT('',(73.400001259148,0.,145.000002339482));
#743=CARTESIAN_POINT('Origin',(85.600001259148,0.,182.000002160668));
#744=CARTESIAN_POINT('',(85.600001259148,0.,145.000002339482));
#745=CARTESIAN_POINT('',(85.600001259148,0.,176.675002151727));
#746=CARTESIAN_POINT('',(85.600001259148,0.4,145.000002339482));
#747=CARTESIAN_POINT('',(85.600001259148,0.,145.000002339482));
#748=CARTESIAN_POINT('',(85.600001259148,0.4,176.675002151727));
#749=CARTESIAN_POINT('Origin',(74.5000012591481,0.,157.000002339482));
#750=CARTESIAN_POINT('',(74.5000012591481,0.,157.000002339482));
#751=CARTESIAN_POINT('',(84.5000012591481,0.,157.000002339482));
#752=CARTESIAN_POINT('',(84.5000012591481,0.,157.000002339482));
#753=CARTESIAN_POINT('',(84.5000012591481,0.4,157.000002339482));
#754=CARTESIAN_POINT('',(84.5000012591481,0.,157.000002339482));
#755=CARTESIAN_POINT('',(74.5000012591481,0.4,157.000002339482));
#756=CARTESIAN_POINT('',(84.5000012591481,0.4,157.000002339482));
#757=CARTESIAN_POINT('',(74.5000012591481,0.,157.000002339482));
#758=CARTESIAN_POINT('Origin',(74.5000012591481,0.,195.700001946091));
#759=CARTESIAN_POINT('',(74.5000012591481,0.,157.000002339482));
#760=CARTESIAN_POINT('',(74.5000012591481,0.4,157.000002339482));
#761=CARTESIAN_POINT('Origin',(84.5000012591481,0.,157.000002339482));
#762=CARTESIAN_POINT('',(84.5000012591481,0.,195.700001946091));
#763=CARTESIAN_POINT('',(84.5000012591481,0.4,195.700001946091));
#764=CARTESIAN_POINT('Origin',(85.600001259148,0.,145.000002339482));
#765=CARTESIAN_POINT('',(73.400001259148,0.,145.000002339482));
#766=CARTESIAN_POINT('',(73.400001259148,0.4,145.000002339482));
#767=CARTESIAN_POINT('Origin',(79.500001259148,0.4,171.350002142786));
#768=CARTESIAN_POINT('Origin',(79.500001259148,0.,171.350002142786));
#769=UNCERTAINTY_MEASURE_WITH_UNIT(LENGTH_MEASURE(0.01),#773,
'DISTANCE_ACCURACY_VALUE',
'Maximum model space distance between geometric entities at asserted c
onnectivities');
#770=UNCERTAINTY_MEASURE_WITH_UNIT(LENGTH_MEASURE(0.01),#773,
'DISTANCE_ACCURACY_VALUE',
'Maximum model space distance between geometric entities at asserted c
onnectivities');
#771=(
GEOMETRIC_REPRESENTATION_CONTEXT(3)
GLOBAL_UNCERTAINTY_ASSIGNED_CONTEXT((#769))
GLOBAL_UNIT_ASSIGNED_CONTEXT((#773,#775,#776))
REPRESENTATION_CONTEXT('','3D')
);
#772=(
GEOMETRIC_REPRESENTATION_CONTEXT(3)
GLOBAL_UNCERTAINTY_ASSIGNED_CONTEXT((#770))
GLOBAL_UNIT_ASSIGNED_CONTEXT((#773,#775,#776))
REPRESENTATION_CONTEXT('','3D')
);
#773=(
LENGTH_UNIT()
NAMED_UNIT(*)
SI_UNIT(.MILLI.,.METRE.)
);
#774=(
LENGTH_UNIT()
NAMED_UNIT(*)
SI_UNIT($,.METRE.)
);
#775=(
NAMED_UNIT(*)
PLANE_ANGLE_UNIT()
SI_UNIT($,.RADIAN.)
);
#776=(
NAMED_UNIT(*)
SI_UNIT($,.STERADIAN.)
SOLID_ANGLE_UNIT()
);
#777=SHAPE_DEFINITION_REPRESENTATION(#778,#779);
#778=PRODUCT_DEFINITION_SHAPE('',$,#781);
#779=SHAPE_REPRESENTATION('',(#489),#771);
#780=PRODUCT_DEFINITION_CONTEXT('part definition',#785,'design');
#781=PRODUCT_DEFINITION('2026-08-27-20-51-44-399','Dongle v3',#782,#780);
#782=PRODUCT_DEFINITION_FORMATION('',$,#787);
#783=PRODUCT_RELATED_PRODUCT_CATEGORY('Dongle v3','Dongle v3',(#787));
#784=APPLICATION_PROTOCOL_DEFINITION('international standard',
'automotive_design',2009,#785);
#785=APPLICATION_CONTEXT(
'Core Data for Automotive Mechanical Design Process');
#786=PRODUCT_CONTEXT('part definition',#785,'mechanical');
#787=PRODUCT('2026-08-27-20-51-44-399','Dongle v3',$,(#786));
#788=PRESENTATION_STYLE_ASSIGNMENT((#789));
#789=SURFACE_STYLE_USAGE(.BOTH.,#790);
#790=SURFACE_SIDE_STYLE('',(#791));
#791=SURFACE_STYLE_FILL_AREA(#792);
#792=FILL_AREA_STYLE('Steel - Satin',(#793));
#793=FILL_AREA_STYLE_COLOUR('Steel - Satin',#794);
#794=COLOUR_RGB('Steel - Satin',0.627450980392157,0.627450980392157,0.627450980392157);
ENDSEC;
END-ISO-10303-21;
