%TF.GenerationSoftware,KiCad,Pcbnew,10.0.0-1.fc44*%
%TF.CreationDate,2026-08-27T23:53:35+01:00*%
%TF.ProjectId,snippy,736e6970-7079-42e6-9b69-6361645f7063,rev?*%
%TF.SameCoordinates,Original*%
%TF.FileFunction,Copper,L1,Top*%
%TF.FilePolarity,Positive*%
%FSLAX46Y46*%
G04 Gerber Fmt 4.6, Leading zero omitted, Abs format (unit mm)*
G04 Created by KiCad (PCBNEW 10.0.0-1.fc44) date 2026-08-27 23:53:35*
%MOMM*%
%LPD*%
G01*
G04 APERTURE LIST*
G04 Aperture macros list*
%AMRoundRect*
0 Rectangle with rounded corners*
0 $1 Rounding radius*
0 $2 $3 $4 $5 $6 $7 $8 $9 X,Y pos of 4 corners*
0 Add a 4 corners polygon primitive as box body*
4,1,4,$2,$3,$4,$5,$6,$7,$8,$9,$2,$3,0*
0 Add four circle primitives for the rounded corners*
1,1,$1+$1,$2,$3*
1,1,$1+$1,$4,$5*
1,1,$1+$1,$6,$7*
1,1,$1+$1,$8,$9*
0 Add four rect primitives between the rounded corners*
20,1,$1+$1,$2,$3,$4,$5,0*
20,1,$1+$1,$4,$5,$6,$7,0*
20,1,$1+$1,$6,$7,$8,$9,0*
20,1,$1+$1,$8,$9,$2,$3,0*%
G04 Aperture macros list end*
%ADD10C,0.200000*%
%TA.AperFunction,NonConductor*%
%ADD11C,0.200000*%
%TD*%
%TA.AperFunction,ComponentPad*%
%ADD12C,2.000000*%
%TD*%
%TA.AperFunction,SMDPad,CuDef*%
%ADD13RoundRect,0.200000X0.200000X0.275000X-0.200000X0.275000X-0.200000X-0.275000X0.200000X-0.275000X0*%
%TD*%
%TA.AperFunction,SMDPad,CuDef*%
%ADD14RoundRect,0.225000X0.250000X-0.225000X0.250000X0.225000X-0.250000X0.225000X-0.250000X-0.225000X0*%
%TD*%
%TA.AperFunction,SMDPad,CuDef*%
%ADD15RoundRect,0.150000X-0.150000X0.825000X-0.150000X-0.825000X0.150000X-0.825000X0.150000X0.825000X0*%
%TD*%
%TA.AperFunction,SMDPad,CuDef*%
%ADD16RoundRect,0.250000X0.750000X-0.275000X0.750000X0.275000X-0.750000X0.275000X-0.750000X-0.275000X0*%
%TD*%
%TA.AperFunction,SMDPad,CuDef*%
%ADD17RoundRect,0.225000X0.225000X0.250000X-0.225000X0.250000X-0.225000X-0.250000X0.225000X-0.250000X0*%
%TD*%
%TA.AperFunction,ConnectorPad*%
%ADD18R,1.900000X8.000000*%
%TD*%
%TA.AperFunction,ConnectorPad*%
%ADD19R,2.000000X7.500000*%
%TD*%
%TA.AperFunction,ViaPad*%
%ADD20C,0.600000*%
%TD*%
%TA.AperFunction,Conductor*%
%ADD21C,0.500000*%
%TD*%
%TA.AperFunction,Conductor*%
%ADD22C,0.200000*%
%TD*%
G04 APERTURE END LIST*
D10*
D11*
X141869673Y-98367219D02*
X141869673Y-97367219D01*
X142298244Y-98319600D02*
X142393482Y-98367219D01*
X142393482Y-98367219D02*
X142583958Y-98367219D01*
X142583958Y-98367219D02*
X142679196Y-98319600D01*
X142679196Y-98319600D02*
X142726815Y-98224361D01*
X142726815Y-98224361D02*
X142726815Y-98176742D01*
X142726815Y-98176742D02*
X142679196Y-98081504D01*
X142679196Y-98081504D02*
X142583958Y-98033885D01*
X142583958Y-98033885D02*
X142441101Y-98033885D01*
X142441101Y-98033885D02*
X142345863Y-97986266D01*
X142345863Y-97986266D02*
X142298244Y-97891028D01*
X142298244Y-97891028D02*
X142298244Y-97843409D01*
X142298244Y-97843409D02*
X142345863Y-97748171D01*
X142345863Y-97748171D02*
X142441101Y-97700552D01*
X142441101Y-97700552D02*
X142583958Y-97700552D01*
X142583958Y-97700552D02*
X142679196Y-97748171D01*
X143298244Y-98367219D02*
X143203006Y-98319600D01*
X143203006Y-98319600D02*
X143155387Y-98271980D01*
X143155387Y-98271980D02*
X143107768Y-98176742D01*
X143107768Y-98176742D02*
X143107768Y-97891028D01*
X143107768Y-97891028D02*
X143155387Y-97795790D01*
X143155387Y-97795790D02*
X143203006Y-97748171D01*
X143203006Y-97748171D02*
X143298244Y-97700552D01*
X143298244Y-97700552D02*
X143441101Y-97700552D01*
X143441101Y-97700552D02*
X143536339Y-97748171D01*
X143536339Y-97748171D02*
X143583958Y-97795790D01*
X143583958Y-97795790D02*
X143631577Y-97891028D01*
X143631577Y-97891028D02*
X143631577Y-98176742D01*
X143631577Y-98176742D02*
X143583958Y-98271980D01*
X143583958Y-98271980D02*
X143536339Y-98319600D01*
X143536339Y-98319600D02*
X143441101Y-98367219D01*
X143441101Y-98367219D02*
X143298244Y-98367219D01*
X144060149Y-98367219D02*
X144060149Y-97367219D01*
X144060149Y-97748171D02*
X144155387Y-97700552D01*
X144155387Y-97700552D02*
X144345863Y-97700552D01*
X144345863Y-97700552D02*
X144441101Y-97748171D01*
X144441101Y-97748171D02*
X144488720Y-97795790D01*
X144488720Y-97795790D02*
X144536339Y-97891028D01*
X144536339Y-97891028D02*
X144536339Y-98176742D01*
X144536339Y-98176742D02*
X144488720Y-98271980D01*
X144488720Y-98271980D02*
X144441101Y-98319600D01*
X144441101Y-98319600D02*
X144345863Y-98367219D01*
X144345863Y-98367219D02*
X144155387Y-98367219D01*
X144155387Y-98367219D02*
X144060149Y-98319600D01*
X145345863Y-98319600D02*
X145250625Y-98367219D01*
X145250625Y-98367219D02*
X145060149Y-98367219D01*
X145060149Y-98367219D02*
X144964911Y-98319600D01*
X144964911Y-98319600D02*
X144917292Y-98224361D01*
X144917292Y-98224361D02*
X144917292Y-97843409D01*
X144917292Y-97843409D02*
X144964911Y-97748171D01*
X144964911Y-97748171D02*
X145060149Y-97700552D01*
X145060149Y-97700552D02*
X145250625Y-97700552D01*
X145250625Y-97700552D02*
X145345863Y-97748171D01*
X145345863Y-97748171D02*
X145393482Y-97843409D01*
X145393482Y-97843409D02*
X145393482Y-97938647D01*
X145393482Y-97938647D02*
X144917292Y-98033885D01*
X145964911Y-98367219D02*
X145869673Y-98319600D01*
X145869673Y-98319600D02*
X145822054Y-98224361D01*
X145822054Y-98224361D02*
X145822054Y-97367219D01*
X147107769Y-98367219D02*
X147107769Y-97367219D01*
X147107769Y-97367219D02*
X147488721Y-97367219D01*
X147488721Y-97367219D02*
X147583959Y-97414838D01*
X147583959Y-97414838D02*
X147631578Y-97462457D01*
X147631578Y-97462457D02*
X147679197Y-97557695D01*
X147679197Y-97557695D02*
X147679197Y-97700552D01*
X147679197Y-97700552D02*
X147631578Y-97795790D01*
X147631578Y-97795790D02*
X147583959Y-97843409D01*
X147583959Y-97843409D02*
X147488721Y-97891028D01*
X147488721Y-97891028D02*
X147107769Y-97891028D01*
X148536340Y-98367219D02*
X148536340Y-97843409D01*
X148536340Y-97843409D02*
X148488721Y-97748171D01*
X148488721Y-97748171D02*
X148393483Y-97700552D01*
X148393483Y-97700552D02*
X148203007Y-97700552D01*
X148203007Y-97700552D02*
X148107769Y-97748171D01*
X148536340Y-98319600D02*
X148441102Y-98367219D01*
X148441102Y-98367219D02*
X148203007Y-98367219D01*
X148203007Y-98367219D02*
X148107769Y-98319600D01*
X148107769Y-98319600D02*
X148060150Y-98224361D01*
X148060150Y-98224361D02*
X148060150Y-98129123D01*
X148060150Y-98129123D02*
X148107769Y-98033885D01*
X148107769Y-98033885D02*
X148203007Y-97986266D01*
X148203007Y-97986266D02*
X148441102Y-97986266D01*
X148441102Y-97986266D02*
X148536340Y-97938647D01*
X149012531Y-97700552D02*
X149012531Y-98367219D01*
X149012531Y-97795790D02*
X149060150Y-97748171D01*
X149060150Y-97748171D02*
X149155388Y-97700552D01*
X149155388Y-97700552D02*
X149298245Y-97700552D01*
X149298245Y-97700552D02*
X149393483Y-97748171D01*
X149393483Y-97748171D02*
X149441102Y-97843409D01*
X149441102Y-97843409D02*
X149441102Y-98367219D01*
X150345864Y-97700552D02*
X150345864Y-98510076D01*
X150345864Y-98510076D02*
X150298245Y-98605314D01*
X150298245Y-98605314D02*
X150250626Y-98652933D01*
X150250626Y-98652933D02*
X150155388Y-98700552D01*
X150155388Y-98700552D02*
X150012531Y-98700552D01*
X150012531Y-98700552D02*
X149917293Y-98652933D01*
X150345864Y-98319600D02*
X150250626Y-98367219D01*
X150250626Y-98367219D02*
X150060150Y-98367219D01*
X150060150Y-98367219D02*
X149964912Y-98319600D01*
X149964912Y-98319600D02*
X149917293Y-98271980D01*
X149917293Y-98271980D02*
X149869674Y-98176742D01*
X149869674Y-98176742D02*
X149869674Y-97891028D01*
X149869674Y-97891028D02*
X149917293Y-97795790D01*
X149917293Y-97795790D02*
X149964912Y-97748171D01*
X149964912Y-97748171D02*
X150060150Y-97700552D01*
X150060150Y-97700552D02*
X150250626Y-97700552D01*
X150250626Y-97700552D02*
X150345864Y-97748171D01*
D12*
%TO.P,SW4,1,1_1*%
%TO.N,GND*%
X142750000Y-100500000D03*
X149250000Y-100500000D03*
%TO.P,SW4,2,2_2*%
%TO.N,Net-(U1-P3.2)*%
X142750000Y-105000000D03*
X149250000Y-105000000D03*
%TD*%
%TO.P,SW3,1,1_1*%
%TO.N,GND*%
X149250000Y-112500000D03*
X142750000Y-112500000D03*
%TO.P,SW3,2,2_2*%
%TO.N,Net-(U1-P3.1)*%
X149250000Y-108000000D03*
X142750000Y-108000000D03*
%TD*%
D13*
%TO.P,R1,1*%
%TO.N,+3V3*%
X148650000Y-134500000D03*
%TO.P,R1,2*%
%TO.N,Net-(R1-Pad2)*%
X147000000Y-134500000D03*
%TD*%
D14*
%TO.P,C2,1*%
%TO.N,GND*%
X150500000Y-131375000D03*
%TO.P,C2,2*%
%TO.N,+3V3*%
X150500000Y-129825000D03*
%TD*%
D15*
%TO.P,U1,1,P3.2_1*%
%TO.N,Net-(U1-P3.2)*%
X150435000Y-122889840D03*
%TO.P,U1,2,P1.4_2*%
%TO.N,unconnected-(U1-P1.4-Pad2)*%
X149165000Y-122889840D03*
%TO.P,U1,3,P1.5_3*%
%TO.N,unconnected-(U1-P1.5-Pad3)*%
X147895000Y-122889840D03*
%TO.P,U1,4,P1.6_4*%
%TO.N,unconnected-(U1-P1.6-Pad4)*%
X146625000Y-122889840D03*
%TO.P,U1,5,P1.7_5*%
%TO.N,unconnected-(U1-P1.7-Pad5)*%
X145355000Y-122889840D03*
%TO.P,U1,6,RST_6*%
%TO.N,unconnected-(U1-RST-Pad6)*%
X144085000Y-122889840D03*
%TO.P,U1,7,P3.1_7*%
%TO.N,Net-(U1-P3.1)*%
X142815000Y-122889840D03*
%TO.P,U1,8,P3.0_8*%
%TO.N,Net-(U1-P3.0)*%
X141545000Y-122889840D03*
%TO.P,U1,9,P1.1_9*%
%TO.N,unconnected-(U1-P1.1-Pad9)*%
X141545000Y-127839840D03*
%TO.P,U1,10,P3.3_10*%
%TO.N,unconnected-(U1-P3.3-Pad10)*%
X142815000Y-127839840D03*
%TO.P,U1,11,P3.4_11*%
%TO.N,unconnected-(U1-P3.4-Pad11)*%
X144085000Y-127839840D03*
%TO.P,U1,12,P3.6_12*%
%TO.N,D+*%
X145355000Y-127839840D03*
%TO.P,U1,13,P3.7_13*%
%TO.N,D-*%
X146625000Y-127839840D03*
%TO.P,U1,14,GND_14*%
%TO.N,GND*%
X147895000Y-127839840D03*
%TO.P,U1,15,VCC_15*%
%TO.N,VBUS*%
X149165000Y-127839840D03*
%TO.P,U1,16,3V3_16*%
%TO.N,+3V3*%
X150435000Y-127839840D03*
%TD*%
D16*
%TO.P,SW1,1,1_1*%
%TO.N,D+*%
X143000000Y-134725000D03*
%TO.P,SW1,2,2_2*%
%TO.N,Net-(R1-Pad2)*%
X143000000Y-130275000D03*
%TD*%
D17*
%TO.P,C1,1*%
%TO.N,VBUS*%
X149050000Y-130000000D03*
%TO.P,C1,2*%
%TO.N,GND*%
X147500000Y-130000000D03*
%TD*%
D12*
%TO.P,SW2,1,1_1*%
%TO.N,GND*%
X142750000Y-115500000D03*
X149250000Y-115500000D03*
%TO.P,SW2,2,2_2*%
%TO.N,Net-(U1-P3.0)*%
X142750000Y-120000000D03*
X149250000Y-120000000D03*
%TD*%
D18*
%TO.P,J1,1,VBUS_1*%
%TO.N,VBUS*%
X149810000Y-142600000D03*
D19*
%TO.P,J1,2,D-_2*%
%TO.N,D-*%
X147300000Y-142350000D03*
%TO.P,J1,3,D+_3*%
%TO.N,D+*%
X144700000Y-142350000D03*
D18*
%TO.P,J1,4,GND_4*%
%TO.N,GND*%
X142190000Y-142600000D03*
%TD*%
D20*
%TO.N,GND*%
X142500000Y-138000000D03*
X150500000Y-132500000D03*
X148500000Y-126500000D03*
X147500000Y-131000000D03*
%TO.N,+3V3*%
X148500000Y-133000000D03*
X151200000Y-130578908D03*
%TO.N,Net-(R1-Pad2)*%
X147000000Y-133500000D03*
X144755000Y-130500000D03*
%TD*%
%TO.N,VBUS*%
D21*
X149050000Y-130000000D02*
X149050000Y-127954840D01*
X149050000Y-132110661D02*
X149050000Y-130000000D01*
X149810000Y-140100000D02*
X149575000Y-139865000D01*
X149050000Y-127954840D02*
X149165000Y-127839840D01*
X149810000Y-132870661D02*
X149050000Y-132110661D01*
X149810000Y-142600000D02*
X149810000Y-132870661D01*
%TO.N,GND*%
X147500000Y-130000000D02*
X147500000Y-131000000D01*
D22*
X142190000Y-138310000D02*
X142190000Y-142600000D01*
X142500000Y-138000000D02*
X142190000Y-138310000D01*
X148500000Y-127234840D02*
X147895000Y-127839840D01*
X150500000Y-132500000D02*
X150500000Y-131375000D01*
X148500000Y-126500000D02*
X148500000Y-127234840D01*
%TO.N,+3V3*%
X151200000Y-130525000D02*
X150500000Y-129825000D01*
X150435000Y-129760000D02*
X150500000Y-129825000D01*
X150472831Y-129852169D02*
X150500000Y-129825000D01*
X148500000Y-133000000D02*
X148500000Y-134350000D01*
X148500000Y-134350000D02*
X148650000Y-134500000D01*
X151200000Y-130578908D02*
X151200000Y-130525000D01*
X150435000Y-127839840D02*
X150435000Y-129760000D01*
%TO.N,Net-(R1-Pad2)*%
X147000000Y-134500000D02*
X147000000Y-133500000D01*
X143225000Y-130500000D02*
X143000000Y-130275000D01*
X144755000Y-130500000D02*
X143225000Y-130500000D01*
%TO.N,Net-(U1-P3.0)*%
X141545000Y-122889840D02*
X141545000Y-121205000D01*
X141545000Y-121205000D02*
X142750000Y-120000000D01*
X142750000Y-120000000D02*
X149250000Y-120000000D01*
%TO.N,Net-(U1-P3.1)*%
X142815000Y-123235392D02*
X141885552Y-124164840D01*
X142815000Y-122889840D02*
X142815000Y-123235392D01*
X140945000Y-109805000D02*
X142750000Y-108000000D01*
X140945000Y-123905392D02*
X140945000Y-109805000D01*
X142750000Y-108000000D02*
X149250000Y-108000000D01*
X141204448Y-124164840D02*
X140945000Y-123905392D01*
X141885552Y-124164840D02*
X141204448Y-124164840D01*
%TO.N,Net-(U1-P3.2)*%
X149250000Y-105000000D02*
X142750000Y-105000000D01*
X150435000Y-122889840D02*
X151000000Y-122324840D01*
X151000000Y-106750000D02*
X149250000Y-105000000D01*
X151000000Y-122324840D02*
X151000000Y-106750000D01*
%TO.N,D+*%
X143000000Y-134725000D02*
X145355000Y-132370000D01*
X145355000Y-132370000D02*
X145355000Y-127839840D01*
X144700000Y-142350000D02*
X144700000Y-136425000D01*
X143000000Y-134725000D02*
X143184056Y-134725000D01*
X144700000Y-136425000D02*
X143000000Y-134725000D01*
%TO.N,D-*%
X146285000Y-141335000D02*
X146285000Y-138067633D01*
X146285000Y-136569804D02*
X146285000Y-135476525D01*
X147300000Y-142350000D02*
X146285000Y-141335000D01*
X146285000Y-135476525D02*
X146285000Y-128179840D01*
X146709654Y-137345150D02*
X146709654Y-137169804D01*
X146285000Y-138067633D02*
X146285000Y-137948501D01*
X146285000Y-128179840D02*
X146625000Y-127839840D01*
X146625000Y-128473443D02*
X146625000Y-127839840D01*
X146285000Y-137948501D02*
X146285000Y-137769804D01*
X146285000Y-136745150D02*
X146285000Y-136569804D01*
X146497327Y-137557477D02*
G75*
G03*
X146709577Y-137345150I-27J212277D01*
G01*
X146497327Y-136957477D02*
G75*
G02*
X146285023Y-136745150I-27J212277D01*
G01*
X146285000Y-137769804D02*
G75*
G02*
X146497327Y-137557500I212300J4D01*
G01*
X146709654Y-137169804D02*
G75*
G03*
X146497327Y-136957446I-212354J4D01*
G01*
%TD*%
M02*
